<?xml version="1.0" encoding="UTF-8"?>
<!DOCTYPE svg PUBLIC "-//W3C//DTD SVG 1.1//EN" "http://www.w3.org/Graphics/SVG/1.1/DTD/svg11.dtd">
<svg xmlns="http://www.w3.org/2000/svg" version="1.1" width="393px" height="170px" style="shape-rendering:geometricPrecision; text-rendering:geometricPrecision; image-rendering:optimizeQuality; fill-rule:evenodd; clip-rule:evenodd" xmlns:xlink="http://www.w3.org/1999/xlink">
<g><path style="opacity:0.02" fill="#fefffe" d="M 147.5,4.5 C 148.833,5.16667 148.833,5.16667 147.5,4.5 Z"/></g>
<g><path style="opacity:0.043" fill="#fefffe" d="M 237.5,9.5 C 238.077,8.22671 238.743,8.22671 239.5,9.5C 239.03,10.463 238.363,10.463 237.5,9.5 Z"/></g>
<g><path style="opacity:0.063" fill="#fefffe" d="M 227.5,16.5 C 228.525,16.8966 228.692,17.5632 228,18.5C 227.536,17.9056 227.369,17.2389 227.5,16.5 Z"/></g>
<g><path style="opacity:1" fill="#f1ec14" d="M 186.5,3.5 C 191.923,4.16103 192.923,6.8277 189.5,11.5C 192.488,19.3368 196.821,26.1701 202.5,32C 204.167,32.6667 205.833,32.6667 207.5,32C 211,28.5 214.5,25 218,21.5C 218.045,18.666 218.879,16.166 220.5,14C 221.996,13.4926 223.163,13.9926 224,15.5C 220.451,25.0313 217.951,35.0313 216.5,45.5C 198.155,45.8329 179.821,45.4996 161.5,44.5C 159.103,34.5556 156.27,24.8889 153,15.5C 154.667,14.1667 156.333,14.1667 158,15.5C 158.305,17.5568 158.305,19.5568 158,21.5C 161.5,25 165,28.5 168.5,32C 170.5,32.6667 172.5,32.6667 174.5,32C 180.207,26.0968 184.54,19.2635 187.5,11.5C 184.49,8.93431 184.157,6.26764 186.5,3.5 Z"/></g>
<g><path style="opacity:0.055" fill="#fefffe" d="M 194.5,15.5 C 195.525,15.8966 195.692,16.5632 195,17.5C 194.536,16.9056 194.369,16.2389 194.5,15.5 Z"/></g>
<g><path style="opacity:0.09" fill="#fefffe" d="M 173.5,26.5 C 174.833,27.1667 174.833,27.1667 173.5,26.5 Z"/></g>
<g><path style="opacity:1" fill="#e8c400" d="M 187.5,21.5 C 189.017,21.5106 190.184,22.1772 191,23.5C 192.351,28.8851 195.184,33.2185 199.5,36.5C 201.167,36.8333 202.833,37.1667 204.5,37.5C 207.904,37.238 210.904,36.238 213.5,34.5C 213.917,37.0792 213.25,39.2458 211.5,41C 196.5,41.6667 181.5,41.6667 166.5,41C 164.018,39.4056 163.852,37.5723 166,35.5C 167.994,36.6642 170.161,37.3308 172.5,37.5C 175.25,36.598 177.917,35.4313 180.5,34C 183.226,30.0485 185.559,25.8818 187.5,21.5 Z"/></g>
<g><path style="opacity:0.067" fill="#fefffe" d="M 223.5,26.5 C 224.833,27.1667 224.833,27.1667 223.5,26.5 Z"/></g>
<g><path style="opacity:0.18" fill="#fefffe" d="M 205.5,28.5 C 206.833,29.1667 206.833,29.1667 205.5,28.5 Z"/></g>
<g><path style="opacity:0.122" fill="#fefffe" d="M 221.5,36.5 C 222.833,37.1667 222.833,37.1667 221.5,36.5 Z"/></g>
<g><path style="opacity:0.149" fill="#fefffe" d="M 219.5,43.5 C 220.833,44.1667 220.833,44.1667 219.5,43.5 Z"/></g>
<g><path style="opacity:1" fill="#f2ee00" d="M 161.5,49.5 C 179.5,49.5 197.5,49.5 215.5,49.5C 215.5,51.5 215.5,53.5 215.5,55.5C 197.5,55.5 179.5,55.5 161.5,55.5C 161.5,53.5 161.5,51.5 161.5,49.5 Z"/></g>
<g><path style="opacity:0.086" fill="#fefffe" d="M 231.5,51.5 C 232.833,52.1667 232.833,52.1667 231.5,51.5 Z"/></g>
<g><path style="opacity:0.031" fill="#fefffe" d="M 212.5,59.5 C 212.897,58.475 213.563,58.3083 214.5,59C 213.906,59.4643 213.239,59.631 212.5,59.5 Z"/></g>
<g><path style="opacity:0.061" fill="#fefffe" d="M 180.5,60.5 C 180.897,59.475 181.563,59.3083 182.5,60C 181.906,60.4643 181.239,60.631 180.5,60.5 Z"/></g>
<g><path style="opacity:1" fill="#1015f8" d="M 75.5,64.5 C 77.5,64.5 79.5,64.5 81.5,64.5C 81.5,66.5 81.5,68.5 81.5,70.5C 79.5,70.5 77.5,70.5 75.5,70.5C 75.5,68.5 75.5,66.5 75.5,64.5 Z"/></g>
<g><path style="opacity:0.016" fill="#fefffe" d="M 225.5,68.5 C 226.833,69.1667 226.833,69.1667 225.5,68.5 Z"/></g>
<g><path style="opacity:1" fill="#0915ee" d="M 276.5,64.5 C 281.123,63.4082 282.956,65.0748 282,69.5C 276.42,71.7516 274.587,70.0849 276.5,64.5 Z"/></g>
<g><path style="opacity:1" fill="#0309ea" d="M 75.5,74.5 C 77.5,74.5 79.5,74.5 81.5,74.5C 81.5,81.8333 81.5,89.1667 81.5,96.5C 79.5,96.5 77.5,96.5 75.5,96.5C 75.5,89.1667 75.5,81.8333 75.5,74.5 Z"/></g>
<g><path style="opacity:0.059" fill="#fefffe" d="M 332.5,79.5 C 333.833,80.1667 333.833,80.1667 332.5,79.5 Z"/></g>
<g><path style="opacity:1" fill="#0b11d0" d="M 47.5,66.5 C 49.5,66.5 51.5,66.5 53.5,66.5C 53.1758,70.5546 53.5091,74.5546 54.5,78.5C 56.1487,77.3523 57.6487,76.019 59,74.5C 60.4198,67.4125 64.5865,64.9125 71.5,67C 67.9157,71.5077 64.5824,76.1744 61.5,81C 64.2331,86.2355 67.5664,91.0689 71.5,95.5C 68.8938,96.6517 66.2272,96.8184 63.5,96C 61.456,91.4518 58.7894,87.2851 55.5,83.5C 54.914,83.7093 54.414,84.0426 54,84.5C 53.5012,88.4862 53.3345,92.4862 53.5,96.5C 51.5,96.5 49.5,96.5 47.5,96.5C 47.5,86.5 47.5,76.5 47.5,66.5 Z"/></g>
<g><path style="opacity:1" fill="#0f13e5" d="M 117.5,74.5 C 121.131,74.0323 124.465,74.699 127.5,76.5C 129.523,74.8267 131.856,74.1601 134.5,74.5C 134.666,83.5062 134.5,92.5062 134,101.5C 132.5,103 131,104.5 129.5,106C 124.845,106.499 120.179,106.666 115.5,106.5C 115.5,104.833 115.5,103.167 115.5,101.5C 118.85,101.665 122.183,101.498 125.5,101C 127.563,99.4284 128.229,97.595 127.5,95.5C 120.361,99.0649 115.528,97.0649 113,89.5C 111.376,83.3883 112.876,78.3883 117.5,74.5 Z M 121.5,79.5 C 127.997,79.1799 130.164,82.1799 128,88.5C 125.182,92.4236 122.182,92.4236 119,88.5C 117.927,84.9003 118.76,81.9003 121.5,79.5 Z"/></g>
<g><path style="opacity:0.388" fill="#fefffe" d="M 332.5,81.5 C 333.833,82.1667 333.833,82.1667 332.5,81.5 Z"/></g>
<g><path style="opacity:1" fill="#0308de" d="M 87.5,74.5 C 90.1441,74.1601 92.4775,74.8267 94.5,76.5C 98.9153,74.893 103.082,75.2263 107,77.5C 108.37,83.7416 108.87,90.0749 108.5,96.5C 106.5,96.5 104.5,96.5 102.5,96.5C 102.666,91.8215 102.499,87.1548 102,82.5C 100.695,79.6936 98.5282,78.8603 95.5,80C 94.8742,80.7504 94.3742,81.5838 94,82.5C 93.5008,87.1548 93.3342,91.8215 93.5,96.5C 91.5,96.5 89.5,96.5 87.5,96.5C 87.5,89.1667 87.5,81.8333 87.5,74.5 Z"/></g>
<g><path style="opacity:1" fill="#0107fd" d="M 253.5,66.5 C 253.5,67.5 253.5,68.5 253.5,69.5C 252.5,69.5 251.5,69.5 250.5,69.5C 250.169,77.1955 250.503,84.8622 251.5,92.5C 252.417,91.8728 253.417,91.5394 254.5,91.5C 254.5,93.1667 254.5,94.8333 254.5,96.5C 252.5,96.5 250.5,96.5 248.5,96.5C 248.5,86.5 248.5,76.5 248.5,66.5C 250.167,66.5 251.833,66.5 253.5,66.5 Z"/></g>
<g><path style="opacity:1" fill="#1011e3" d="M 155.5,64.5 C 157.5,64.5 159.5,64.5 161.5,64.5C 161.5,75.1667 161.5,85.8333 161.5,96.5C 155.582,96.1155 149.582,95.9488 143.5,96C 137.212,89.6453 136.879,82.9786 142.5,76C 146.67,73.9673 150.67,74.134 154.5,76.5C 155.491,72.5546 155.824,68.5546 155.5,64.5 Z M 149.5,79.5 C 154.824,80.3305 156.658,83.3305 155,88.5C 152.294,91.9779 149.294,92.3112 146,89.5C 144.581,85.0823 145.748,81.7489 149.5,79.5 Z"/></g>
<g><path style="opacity:1" fill="#1016cc" d="M 253.5,66.5 C 254.166,70.0208 254.833,73.6875 255.5,77.5C 258.711,74.4505 261.377,70.9505 263.5,67C 266.227,66.1816 268.894,66.3483 271.5,67.5C 268.11,71.5578 265.11,75.8911 262.5,80.5C 265.585,85.672 268.919,90.672 272.5,95.5C 269.894,96.6517 267.227,96.8184 264.5,96C 261.623,91.7451 258.623,87.5784 255.5,83.5C 254.52,86.0865 254.187,88.7531 254.5,91.5C 253.417,91.5394 252.417,91.8728 251.5,92.5C 250.503,84.8622 250.169,77.1955 250.5,69.5C 251.5,69.5 252.5,69.5 253.5,69.5C 253.5,68.5 253.5,67.5 253.5,66.5 Z"/></g>
<g><path style="opacity:1" fill="#1317ce" d="M 317.5,74.5 C 320.85,74.335 324.183,74.5017 327.5,75C 328.38,76.3561 328.714,77.8561 328.5,79.5C 325.753,79.1866 323.086,79.52 320.5,80.5C 323.525,82.1073 326.358,84.1073 329,86.5C 329.978,89.6693 329.478,92.5027 327.5,95C 323.289,96.5339 318.956,96.8673 314.5,96C 313.62,94.6439 313.286,93.1439 313.5,91.5C 315.696,91.59 317.863,91.9233 320,92.5C 321.662,92.6125 322.829,91.9458 323.5,90.5C 320.302,88.258 317.136,85.9246 314,83.5C 312.98,79.5532 314.147,76.5532 317.5,74.5 Z"/></g>
<g><path style="opacity:1" fill="#0a11e3" d="M 194.5,74.5 C 197.144,74.1601 199.477,74.8267 201.5,76.5C 206.164,73.551 210.497,73.8844 214.5,77.5C 219.41,73.1833 223.91,73.5166 228,78.5C 228.499,84.4908 228.666,90.4908 228.5,96.5C 226.5,96.5 224.5,96.5 222.5,96.5C 222.666,91.1563 222.499,85.8229 222,80.5C 219.67,78.9683 217.67,79.3017 216,81.5C 215.501,86.4889 215.334,91.4889 215.5,96.5C 213.167,96.5 210.833,96.5 208.5,96.5C 208.666,91.4889 208.499,86.4889 208,81.5C 206,78.8333 204,78.8333 202,81.5C 201.501,86.4889 201.334,91.4889 201.5,96.5C 199.167,96.5 196.833,96.5 194.5,96.5C 194.5,89.1667 194.5,81.8333 194.5,74.5 Z"/></g>
<g><path style="opacity:1" fill="#1414e8" d="M 173.5,74.5 C 185.99,72.8227 191.157,78.156 189,90.5C 186.391,94.722 182.558,96.722 177.5,96.5C 167.815,95.4997 164.315,90.1664 167,80.5C 168.436,77.5581 170.603,75.5581 173.5,74.5 Z M 175.5,80.5 C 182.265,80.4641 184.265,83.6308 181.5,90C 175.744,92.5693 172.911,90.736 173,84.5C 173.662,83.0161 174.496,81.6828 175.5,80.5 Z"/></g>
<g><path style="opacity:1" fill="#0202d2" d="M 276.5,74.5 C 278.167,74.5 279.833,74.5 281.5,74.5C 281.5,81.8333 281.5,89.1667 281.5,96.5C 279.833,96.5 278.167,96.5 276.5,96.5C 276.5,89.1667 276.5,81.8333 276.5,74.5 Z"/></g>
<g><path style="opacity:0.063" fill="#fefffe" d="M 231.5,92.5 C 232.833,93.1667 232.833,93.1667 231.5,92.5 Z"/></g>
<g><path style="opacity:1" fill="#080ee6" d="M 302.5,64.5 C 304.5,64.5 306.5,64.5 308.5,64.5C 308.5,75.1667 308.5,85.8333 308.5,96.5C 305.956,96.8957 303.789,96.229 302,94.5C 290.944,98.4623 285.944,94.4623 287,82.5C 287.504,78.9798 289.337,76.4798 292.5,75C 295.865,74.6861 299.031,74.5194 302,74.5C 302.498,71.1832 302.665,67.8499 302.5,64.5 Z M 293.5,79.5 C 296.167,79.5 298.833,79.5 301.5,79.5C 302.705,83.5132 302.705,87.5132 301.5,91.5C 298.833,91.5 296.167,91.5 293.5,91.5C 292.295,87.5132 292.295,83.5132 293.5,79.5 Z"/></g>
<g><path style="opacity:0.059" fill="#fefffe" d="M 301.5,98.5 C 302.833,99.1667 302.833,99.1667 301.5,98.5 Z"/></g>
<g><path style="opacity:0.082" fill="#fefffe" d="M 108.5,99.5 C 109.833,100.167 109.833,100.167 108.5,99.5 Z"/></g>
<g><path style="opacity:0.059" fill="#fefffe" d="M 151.5,101.5 C 153.288,100.378 155.288,100.211 157.5,101C 155.527,101.495 153.527,101.662 151.5,101.5 Z"/></g>
<g><path style="opacity:1" fill="#1f2af8" d="M 197.5,111.5 C 201.182,111.335 204.848,111.501 208.5,112C 211.857,114.983 212.357,118.483 210,122.5C 207.435,124.179 204.602,124.846 201.5,124.5C 201.5,127.167 201.5,129.833 201.5,132.5C 200.167,132.5 198.833,132.5 197.5,132.5C 197.5,125.5 197.5,118.5 197.5,111.5 Z M 201.5,113.5 C 202.93,113.421 204.264,113.754 205.5,114.5C 206.474,116.743 206.808,119.076 206.5,121.5C 204.833,121.5 203.167,121.5 201.5,121.5C 201.5,118.833 201.5,116.167 201.5,113.5 Z"/></g>
<g><path style="opacity:0.008" fill="#fefffe" d="M 142.5,112.5 C 143.833,113.167 143.833,113.167 142.5,112.5 Z"/></g>
<g><path style="opacity:1" fill="#1b23ee" d="M 140.5,116.5 C 143.119,116.232 145.619,116.565 148,117.5C 148.749,118.635 148.583,119.635 147.5,120.5C 141.032,119.154 138.865,121.82 141,128.5C 142.804,130.419 144.804,130.752 147,129.5C 148.826,130.01 148.993,130.844 147.5,132C 144.007,133.004 140.841,132.504 138,130.5C 136.718,125.295 137.551,120.628 140.5,116.5 Z"/></g>
<g><path style="opacity:1" fill="#0e16e0" d="M 179.5,112.5 C 180.5,112.5 181.5,112.5 182.5,112.5C 182.5,114.167 182.5,115.833 182.5,117.5C 187.833,118.167 187.833,118.833 182.5,119.5C 182.335,122.85 182.502,126.183 183,129.5C 186.078,130.849 186.078,131.849 183,132.5C 181.893,132.415 180.893,132.081 180,131.5C 179.501,127.514 179.334,123.514 179.5,119.5C 175.5,118.833 175.5,118.167 179.5,117.5C 179.5,115.833 179.5,114.167 179.5,112.5 Z"/></g>
<g><path style="opacity:1" fill="#0926dd" d="M 213.5,111.5 C 214.833,111.5 216.167,111.5 217.5,111.5C 217.5,118.5 217.5,125.5 217.5,132.5C 216.167,132.5 214.833,132.5 213.5,132.5C 213.5,125.5 213.5,118.5 213.5,111.5 Z"/></g>
<g><path style="opacity:1" fill="#1b22e3" d="M 108.5,111.5 C 111.5,111.5 114.5,111.5 117.5,111.5C 117.5,112.5 117.5,113.5 117.5,114.5C 114.107,112.523 111.441,113.19 109.5,116.5C 112.163,118.992 114.996,121.326 118,123.5C 118.978,126.669 118.478,129.503 116.5,132C 113.167,132.667 109.833,132.667 106.5,132C 106.043,131.586 105.709,131.086 105.5,130.5C 107.284,129.394 109.118,129.394 111,130.5C 112.951,130.112 114.451,129.112 115.5,127.5C 112.156,124.655 108.989,121.655 106,118.5C 105.683,115.793 106.516,113.46 108.5,111.5 Z"/></g>
<g><path style="opacity:1" fill="#2738f7" d="M 156.5,116.5 C 161.374,117.602 161.207,119.269 156,121.5C 155.501,125.152 155.335,128.818 155.5,132.5C 154.167,132.5 152.833,132.5 151.5,132.5C 151.5,127.5 151.5,122.5 151.5,117.5C 153.415,117.784 155.081,117.451 156.5,116.5 Z"/></g>
<g><path style="opacity:1" fill="#2829e2" d="M 164.5,116.5 C 171.998,115.001 175.332,118.001 174.5,125.5C 171.5,125.5 168.5,125.5 165.5,125.5C 166.221,130.418 168.888,131.752 173.5,129.5C 173.5,130.5 173.5,131.5 173.5,132.5C 163.671,134.172 159.838,130.172 162,120.5C 162.662,119.016 163.496,117.683 164.5,116.5 Z M 166.5,119.5 C 169.95,118.756 171.616,120.09 171.5,123.5C 169.5,123.5 167.5,123.5 165.5,123.5C 165.433,122.041 165.766,120.708 166.5,119.5 Z"/></g>
<g><path style="opacity:1" fill="#292ed7" d="M 125.5,116.5 C 132.116,115.782 135.116,118.782 134.5,125.5C 131.5,125.5 128.5,125.5 125.5,125.5C 125.297,127.39 125.963,128.89 127.5,130C 129.841,129.443 132.174,129.61 134.5,130.5C 124.447,134.964 120.28,131.63 122,120.5C 122.69,118.65 123.856,117.316 125.5,116.5 Z M 126.5,119.5 C 129.5,119.167 130.833,120.5 130.5,123.5C 128.833,123.5 127.167,123.5 125.5,123.5C 125.433,122.041 125.766,120.708 126.5,119.5 Z"/></g>
<g><path style="opacity:1" fill="#2426d6" d="M 222.5,116.5 C 230.321,114.658 233.655,117.658 232.5,125.5C 232.167,127.833 231.833,130.167 231.5,132.5C 228.572,132.104 225.572,131.937 222.5,132C 221.398,129.599 221.231,127.099 222,124.5C 223.734,123.751 225.567,123.251 227.5,123C 228.337,121.989 228.67,120.822 228.5,119.5C 226.139,119.674 223.806,120.007 221.5,120.5C 221.433,119.041 221.766,117.708 222.5,116.5 Z M 225.5,125.5 C 226.5,125.5 227.5,125.5 228.5,125.5C 228.725,127.716 227.892,129.383 226,130.5C 224.212,128.977 224.045,127.31 225.5,125.5 Z"/></g>
<g><path style="opacity:1" fill="#2429e3" d="M 239.5,116.5 C 241.857,116.337 244.19,116.503 246.5,117C 247.337,118.011 247.67,119.178 247.5,120.5C 243.328,118.652 240.661,119.985 239.5,124.5C 240.044,129.079 242.378,130.746 246.5,129.5C 247.521,130.002 247.688,130.668 247,131.5C 240.215,134.435 236.382,132.268 235.5,125C 236.174,121.82 237.508,118.986 239.5,116.5 Z"/></g>
<g><path style="opacity:1" fill="#3a3cf3" d="M 253.5,116.5 C 260.602,115.267 263.935,118.267 263.5,125.5C 260.121,125.888 256.788,126.555 253.5,127.5C 255.758,130.771 258.258,131.104 261,128.5C 262.617,129.536 262.784,130.703 261.5,132C 252.385,134.266 248.552,130.766 250,121.5C 250.997,119.677 252.164,118.01 253.5,116.5 Z M 253.5,118.5 C 255.5,118.5 257.5,118.5 259.5,118.5C 259.5,120.167 259.5,121.833 259.5,123.5C 257.5,123.5 255.5,123.5 253.5,123.5C 253.5,121.833 253.5,120.167 253.5,118.5 Z"/></g>
<g><path style="opacity:0.149" fill="#fefffe" d="M 21.5,137.5 C 22.8333,138.167 22.8333,138.167 21.5,137.5 Z"/></g>
<g><path style="opacity:0.443" fill="#f5ea32" d="M 389.5,149.5 C 388.18,148.058 386.514,147.392 384.5,147.5C 384.762,146.022 384.429,144.689 383.5,143.5C 383.167,145.667 382.833,147.833 382.5,150C 382.67,153.489 383.003,156.656 383.5,159.5C 384.484,156.572 384.817,153.572 384.5,150.5C 385.5,150.5 386.5,150.5 387.5,150.5C 387.187,153.247 387.52,155.914 388.5,158.5C 389.107,158.376 389.44,158.043 389.5,157.5C 390.5,157.5 391.5,157.5 392.5,157.5C 392.5,158.833 392.5,160.167 392.5,161.5C 390.268,162.869 387.934,163.869 385.5,164.5C 378.408,163.991 371.574,164.991 365,167.5C 363.211,165.771 361.044,165.104 358.5,165.5C 358.567,166.959 358.234,168.292 357.5,169.5C 352.167,169.5 346.833,169.5 341.5,169.5C 341.762,168.022 341.429,166.689 340.5,165.5C 335.553,167.814 330.72,167.814 326,165.5C 322.875,166.437 319.709,166.437 316.5,165.5C 309.506,166.573 302.506,167.573 295.5,168.5C 292.135,167.925 288.802,167.258 285.5,166.5C 279.283,168.331 273.616,167.331 268.5,163.5C 260.561,163.948 252.561,163.948 244.5,163.5C 238.5,163.667 232.5,163.833 226.5,164C 223.07,165.169 219.737,166.336 216.5,167.5C 213.042,168.226 211.375,166.893 211.5,163.5C 206.249,164.709 200.916,165.709 195.5,166.5C 186.922,164.015 178.589,163.848 170.5,166C 163.152,166.637 155.819,166.47 148.5,165.5C 140.547,167.028 132.547,167.528 124.5,167C 123.953,166.075 123.287,165.242 122.5,164.5C 117.752,163.857 113.086,164.524 108.5,166.5C 96.5697,165.496 84.7364,164.83 73,164.5C 72.1534,166.193 71.3201,167.86 70.5,169.5C 65.8333,169.5 61.1667,169.5 56.5,169.5C 55.3157,168.312 55.3157,167.145 56.5,166C 46.5252,166.249 36.3585,166.082 26,165.5C 23.5217,166.245 21.0217,166.911 18.5,167.5C 13.288,165.98 7.95467,165.147 2.5,165C 1.62656,163.955 0.626561,163.122 -0.5,162.5C -0.5,155.5 -0.5,148.5 -0.5,141.5C 1.5504,141.039 3.5504,140.372 5.5,139.5C 9.59472,141.72 13.9281,143.053 18.5,143.5C 18.33,142.178 18.6634,141.011 19.5,140C 23.7332,138.371 27.7332,138.371 31.5,140C 33.225,143.774 36.225,145.274 40.5,144.5C 40.2865,142.856 40.6198,141.356 41.5,140C 46.1548,139.501 50.8215,139.334 55.5,139.5C 55.5,140.5 55.5,141.5 55.5,142.5C 59.5138,142.334 63.5138,142.501 67.5,143C 68.3333,143.833 69.1667,144.667 70,145.5C 72.5645,143.821 75.3979,143.154 78.5,143.5C 78.33,142.178 78.6634,141.011 79.5,140C 82.9382,137.809 85.9382,138.142 88.5,141C 92.5305,141.326 96.5305,141.326 100.5,141C 103.401,144.3 106.734,144.966 110.5,143C 115.658,142.777 120.658,142.61 125.5,142.5C 125.34,144.199 125.506,145.866 126,147.5C 126.318,145.939 127.151,144.772 128.5,144C 135.727,143.245 142.727,141.745 149.5,139.5C 151.854,139.511 153.854,140.344 155.5,142C 162.505,142.434 169.505,142.934 176.5,143.5C 180.318,143.545 183.985,142.878 187.5,141.5C 188.894,141.621 190.228,141.954 191.5,142.5C 192.54,140.625 194.04,139.292 196,138.5C 198.639,139.654 201.139,140.988 203.5,142.5C 206.643,141.405 209.809,141.405 213,142.5C 215.059,142.007 217.059,141.34 219,140.5C 231.149,142.939 243.315,142.939 255.5,140.5C 264.774,141.996 274.108,142.663 283.5,142.5C 283.351,143.552 283.517,144.552 284,145.5C 285.939,143.557 288.272,142.557 291,142.5C 297.867,143.155 304.701,143.488 311.5,143.5C 312.327,140.111 314.493,138.778 318,139.5C 320.664,139.191 322.83,140.025 324.5,142C 326.81,142.497 329.143,142.663 331.5,142.5C 331.352,139.648 332.686,137.981 335.5,137.5C 337.608,137.86 339.608,138.527 341.5,139.5C 342.439,141.053 343.606,142.387 345,143.5C 351.811,142.724 358.644,142.558 365.5,143C 369.601,140.686 373.934,138.853 378.5,137.5C 382.719,137.903 386.553,139.236 390,141.5C 392.107,144.371 391.941,147.037 389.5,149.5 Z M 172.5,149.5 C 173.777,150.694 174.444,152.36 174.5,154.5C 174.167,156.167 173.833,157.833 173.5,159.5C 172.513,156.232 172.18,152.898 172.5,149.5 Z M 125.5,151.5 C 127.086,153.081 128.086,155.081 128.5,157.5C 128.167,157.833 127.833,158.167 127.5,158.5C 125.829,156.49 125.162,154.157 125.5,151.5 Z"/></g>
<g><path style="opacity:0.133" fill="#fefffe" d="M 37.5,142.5 C 38.8333,143.167 38.8333,143.167 37.5,142.5 Z"/></g>
<g><path style="opacity:1" fill="#3e3ac9" d="M 3.5,144.5 C 9.66636,143.814 11.833,146.481 10,152.5C 8.89037,154.037 7.39037,154.703 5.5,154.5C 5.78522,156.288 5.45189,157.955 4.5,159.5C 3.50585,154.544 3.17252,149.544 3.5,144.5 Z"/></g>
<g><path style="opacity:1" fill="#3d3ac9" d="M 25.5,144.5 C 27.0568,145.466 28.3901,146.8 29.5,148.5C 27.2212,151.921 26.8879,155.588 28.5,159.5C 27.5,159.5 26.5,159.5 25.5,159.5C 25.9916,155.543 25.3249,151.877 23.5,148.5C 24.8532,147.476 25.5198,146.143 25.5,144.5 Z"/></g>
<g><path style="opacity:1" fill="#3737d4" d="M 148.5,144.5 C 149.809,146.571 150.475,149.071 150.5,152C 150.167,154.5 149.833,157 149.5,159.5C 148.506,154.544 148.173,149.544 148.5,144.5 Z"/></g>
<g><path style="opacity:1" fill="#4140ca" d="M 82.5,143.5 C 84.256,144.552 84.9227,146.219 84.5,148.5C 85.8333,148.5 87.1667,148.5 88.5,148.5C 88.8226,152.226 88.4892,155.893 87.5,159.5C 86.1667,147.5 84.8333,147.5 83.5,159.5C 82.5052,154.208 82.1718,148.875 82.5,143.5 Z"/></g>
<g><path style="opacity:1" fill="#3636cb" d="M 45.5,144.5 C 47.0568,145.466 48.3901,146.8 49.5,148.5C 47.2963,151.603 46.9629,154.937 48.5,158.5C 47.675,159.386 46.675,159.719 45.5,159.5C 45.9916,155.543 45.3249,151.877 43.5,148.5C 44.8532,147.476 45.5198,146.143 45.5,144.5 Z"/></g>
<g><path style="opacity:1" fill="#3b39ce" d="M 187.5,144.5 C 189.048,144.821 189.715,145.821 189.5,147.5C 193.792,147.809 195.459,150.142 194.5,154.5C 194.167,156.167 193.833,157.833 193.5,159.5C 191.628,147.726 189.961,147.726 188.5,159.5C 187.506,154.544 187.173,149.544 187.5,144.5 Z"/></g>
<g><path style="opacity:1" fill="#4b48c6" d="M 222.5,148.5 C 224.288,148.215 225.955,148.548 227.5,149.5C 226.675,150.386 225.675,150.719 224.5,150.5C 224.817,153.572 224.484,156.572 223.5,159.5C 222.511,155.893 222.177,152.226 222.5,148.5 Z"/></g>
<g><path style="opacity:1" fill="#e6da21" d="M 5.5,146.5 C 6.5,146.5 7.5,146.5 8.5,146.5C 8.5,148.167 8.5,149.833 8.5,151.5C 7.5,151.5 6.5,151.5 5.5,151.5C 5.5,149.833 5.5,148.167 5.5,146.5 Z"/></g>
<g><path style="opacity:1" fill="#3831c7" d="M 101.5,143.5 C 102.117,143.611 102.617,143.944 103,144.5C 103.499,149.489 103.666,154.489 103.5,159.5C 101.5,159.5 99.5,159.5 97.5,159.5C 97.5,155.833 97.5,152.167 97.5,148.5C 100.91,148.616 102.244,146.95 101.5,143.5 Z"/></g>
<g><path style="opacity:1" fill="#514cc3" d="M 214.5,148.5 C 216.5,148.5 218.5,148.5 220.5,148.5C 220.5,151.5 220.5,154.5 220.5,157.5C 219.167,157.5 217.833,157.5 216.5,157.5C 216.799,159.604 216.466,161.604 215.5,163.5C 214.506,158.544 214.173,153.544 214.5,148.5 Z"/></g>
<g><path style="opacity:1" fill="#4d47c5" d="M 228.5,148.5 C 230.5,148.5 232.5,148.5 234.5,148.5C 234.5,152.167 234.5,155.833 234.5,159.5C 232.533,159.739 230.699,159.406 229,158.5C 228.502,155.183 228.335,151.85 228.5,148.5 Z"/></g>
<g><path style="opacity:1" fill="#3631d0" d="M 258.5,145.5 C 260.293,145.884 261.293,147.05 261.5,149C 260.249,152.047 260.249,155.047 261.5,158C 260.975,158.692 260.308,159.192 259.5,159.5C 258.124,154.814 257.79,150.147 258.5,145.5 Z"/></g>
<g><path style="opacity:1" fill="#3936d2" d="M 306.5,148.5 C 308.288,148.215 309.955,148.548 311.5,149.5C 310.675,150.386 309.675,150.719 308.5,150.5C 308.817,153.572 308.484,156.572 307.5,159.5C 306.511,155.893 306.177,152.226 306.5,148.5 Z"/></g>
<g><path style="opacity:1" fill="#433dcb" d="M 345.5,148.5 C 347.5,148.5 349.5,148.5 351.5,148.5C 351.666,153.844 351.499,159.177 351,164.5C 348.8,165.99 346.966,165.657 345.5,163.5C 346.689,162.571 348.022,162.238 349.5,162.5C 349.5,160.833 349.5,159.167 349.5,157.5C 347.833,157.5 346.167,157.5 344.5,157.5C 344.264,154.391 344.597,151.391 345.5,148.5 Z"/></g>
<g><path style="opacity:1" fill="#3938d3" d="M 11.5,148.5 C 12.9778,148.238 14.3112,148.571 15.5,149.5C 14.0221,152.632 13.0221,155.965 12.5,159.5C 11.5108,155.893 11.1774,152.226 11.5,148.5 Z"/></g>
<g><path style="opacity:1" fill="#3a39d1" d="M 155.5,148.5 C 157.833,148.5 160.167,148.5 162.5,148.5C 162.915,152.375 162.415,156.042 161,159.5C 160.502,156.518 160.335,153.518 160.5,150.5C 159.5,150.5 158.5,150.5 157.5,150.5C 157.817,153.572 157.484,156.572 156.5,159.5C 155.511,155.893 155.177,152.226 155.5,148.5 Z"/></g>
<g><path style="opacity:1" fill="#4541c3" d="M 353.5,148.5 C 354.978,148.238 356.311,148.571 357.5,149.5C 356.675,150.386 355.675,150.719 354.5,150.5C 354.665,153.85 354.498,157.183 354,160.5C 352.179,156.605 352.012,152.605 353.5,148.5 Z"/></g>
<g><path style="opacity:1" fill="#4943c9" d="M 152.5,147.5 C 153.117,147.611 153.617,147.944 154,148.5C 154.825,152.211 154.659,155.878 153.5,159.5C 152.509,155.555 152.176,151.555 152.5,147.5 Z"/></g>
<g><path style="opacity:1" fill="#e5d93e" d="M 216.5,150.5 C 217.649,150.791 218.316,151.624 218.5,153C 218.167,153.833 217.833,154.667 217.5,155.5C 216.548,153.955 216.215,152.288 216.5,150.5 Z"/></g>
<g><path style="opacity:1" fill="#322fce" d="M 336.5,144.5 C 337.809,146.571 338.475,149.071 338.5,152C 338.333,154.5 338.167,157 338,159.5C 336.558,154.691 336.058,149.691 336.5,144.5 Z"/></g>
<g><path style="opacity:1" fill="#3a3ac8" d="M 16.5,148.5 C 18.5,148.5 20.5,148.5 22.5,148.5C 22.5,152.167 22.5,155.833 22.5,159.5C 20.5,159.5 18.5,159.5 16.5,159.5C 16.5,155.833 16.5,152.167 16.5,148.5 Z"/></g>
<g><path style="opacity:1" fill="#f0e529" d="M 18.5,150.5 C 19.6935,150.97 20.3601,151.97 20.5,153.5C 20.1667,154.5 19.8333,155.5 19.5,156.5C 18.5344,154.604 18.2011,152.604 18.5,150.5 Z"/></g>
<g><path style="opacity:1" fill="#5851bc" d="M 50.5,148.5 C 51.7868,149.871 52.4535,151.705 52.5,154C 52.1667,155.833 51.8333,157.667 51.5,159.5C 50.5108,155.893 50.1774,152.226 50.5,148.5 Z"/></g>
<g><path style="opacity:1" fill="#3635d3" d="M 93.5,145.5 C 94.8048,147.397 95.4714,149.731 95.5,152.5C 95.1667,154.833 94.8333,157.167 94.5,159.5C 93.5067,154.88 93.1734,150.214 93.5,145.5 Z"/></g>
<g><path style="opacity:1" fill="#eee435" d="M 230.5,150.5 C 231.725,151.152 232.392,152.319 232.5,154C 232.333,155.167 232.167,156.333 232,157.5C 230.648,155.406 230.148,153.073 230.5,150.5 Z"/></g>
<g><path style="opacity:1" fill="#4541c4" d="M 250.5,148.5 C 252.5,148.5 254.5,148.5 256.5,148.5C 256.5,152.167 256.5,155.833 256.5,159.5C 254.5,159.5 252.5,159.5 250.5,159.5C 250.5,155.833 250.5,152.167 250.5,148.5 Z"/></g>
<g><path style="opacity:1" fill="#f6e82f" d="M 252.5,150.5 C 253.693,150.97 254.36,151.97 254.5,153.5C 254.167,154.5 253.833,155.5 253.5,156.5C 252.534,154.604 252.201,152.604 252.5,150.5 Z"/></g>
<g><path style="opacity:1" fill="#3b36c8" d="M 266.5,148.5 C 268.833,148.5 271.167,148.5 273.5,148.5C 273.665,152.182 273.499,155.848 273,159.5C 272.667,157.167 272.333,154.833 272,152.5C 271.29,151.027 270.124,150.36 268.5,150.5C 268.813,153.247 268.48,155.914 267.5,158.5C 266.513,155.232 266.18,151.898 266.5,148.5 Z"/></g>
<g><path style="opacity:1" fill="#3939d2" d="M 288.5,147.5 C 294.11,148.576 294.443,149.576 289.5,150.5C 289.5,151.5 289.5,152.5 289.5,153.5C 290.822,153.33 291.989,153.663 293,154.5C 293.497,156.81 293.663,159.143 293.5,161.5C 291.5,161.5 289.5,161.5 287.5,161.5C 287.5,160.5 287.5,159.5 287.5,158.5C 288.833,158.5 290.167,158.5 291.5,158.5C 291.5,157.5 291.5,156.5 291.5,155.5C 290.167,155.5 288.833,155.5 287.5,155.5C 287.279,152.721 287.612,150.054 288.5,147.5 Z"/></g>
<g><path style="opacity:1" fill="#3b37cf" d="M 316.5,144.5 C 318.057,145.466 319.39,146.8 320.5,148.5C 318.296,151.603 317.963,154.937 319.5,158.5C 318.726,159.711 317.893,159.711 317,158.5C 316.899,155.3 316.232,152.3 315,149.5C 314.824,152.882 314.324,156.215 313.5,159.5C 312.167,155.833 312.167,152.167 313.5,148.5C 315.55,147.923 316.55,146.59 316.5,144.5 Z"/></g>
<g><path style="opacity:1" fill="#dcd031" d="M 346.5,150.5 C 347.5,150.5 348.5,150.5 349.5,150.5C 349.5,152.167 349.5,153.833 349.5,155.5C 348.5,155.5 347.5,155.5 346.5,155.5C 346.5,153.833 346.5,152.167 346.5,150.5 Z"/></g>
<g><path style="opacity:1" fill="#4741cc" d="M 140.5,148.5 C 142.5,148.5 144.5,148.5 146.5,148.5C 146.823,152.226 146.489,155.893 145.5,159.5C 144.167,147.5 142.833,147.5 141.5,159.5C 140.511,155.893 140.177,152.226 140.5,148.5 Z"/></g>
<g><path style="opacity:1" fill="#3330d1" d="M 175.5,148.5 C 176.999,149.678 177.999,151.345 178.5,153.5C 179.833,146.833 181.167,146.833 182.5,153.5C 183.167,151.833 183.833,150.167 184.5,148.5C 186.06,152.586 185.393,156.253 182.5,159.5C 181.167,154.167 179.833,154.167 178.5,159.5C 177.914,159.291 177.414,158.957 177,158.5C 175.801,155.274 175.301,151.941 175.5,148.5 Z"/></g>
<g><path style="opacity:1" fill="#2e30d1" d="M 195.5,148.5 C 196.787,149.871 197.453,151.705 197.5,154C 197.167,155.833 196.833,157.667 196.5,159.5C 195.511,155.893 195.177,152.226 195.5,148.5 Z"/></g>
<g><path style="opacity:1" fill="#4744ca" d="M 202.5,148.5 C 204.167,148.5 205.833,148.5 207.5,148.5C 208.172,151.908 207.172,154.575 204.5,156.5C 208.386,159.093 207.719,160.093 202.5,159.5C 202.5,155.833 202.5,152.167 202.5,148.5 Z"/></g>
<g><path style="opacity:1" fill="#ccc449" d="M 204.5,150.5 C 206.332,151.14 206.665,152.14 205.5,153.5C 204.614,152.675 204.281,151.675 204.5,150.5 Z"/></g>
<g><path style="opacity:1" fill="#3b3cc7" d="M 295.5,147.5 C 300.327,146.964 302.327,149.13 301.5,154C 302.407,158.258 300.741,160.091 296.5,159.5C 296.719,160.675 296.386,161.675 295.5,162.5C 294.221,157.449 294.221,152.449 295.5,147.5 Z"/></g>
<g><path style="opacity:1" fill="#eee22c" d="M 296.5,150.5 C 297.5,150.5 298.5,150.5 299.5,150.5C 299.5,152.833 299.5,155.167 299.5,157.5C 298.5,157.5 297.5,157.5 296.5,157.5C 296.5,155.167 296.5,152.833 296.5,150.5 Z"/></g>
<g><path style="opacity:1" fill="#3f3dc7" d="M 329.5,147.5 C 331.5,147.5 333.5,147.5 335.5,147.5C 335.5,151.5 335.5,155.5 335.5,159.5C 333.5,159.5 331.5,159.5 329.5,159.5C 329.5,157.167 329.5,154.833 329.5,152.5C 334.833,151.833 334.833,151.167 329.5,150.5C 329.5,149.5 329.5,148.5 329.5,147.5 Z"/></g>
<g><path style="opacity:1" fill="#4a44c2" d="M 377.5,143.5 C 379.035,144.844 380.368,146.511 381.5,148.5C 380.746,151.777 380.246,155.11 380,158.5C 379.586,158.957 379.086,159.291 378.5,159.5C 377.679,156.553 377.179,153.553 377,150.5C 376.234,153.58 375.234,156.58 374,159.5C 372.812,158.437 372.312,157.103 372.5,155.5C 371.5,155.5 370.5,155.5 369.5,155.5C 369.762,156.978 369.429,158.311 368.5,159.5C 367.813,157.726 366.98,156.059 366,154.5C 365.192,152.421 365.359,150.421 366.5,148.5C 367.167,150.167 367.833,151.833 368.5,153.5C 370.167,146.833 371.833,146.833 373.5,153.5C 374.298,151.922 374.798,150.256 375,148.5C 376.016,149.634 376.683,149.301 377,147.5C 377.49,146.207 377.657,144.873 377.5,143.5 Z"/></g>
<g><path style="opacity:1" fill="#554fbf" d="M 54.5,148.5 C 56.5,148.5 58.5,148.5 60.5,148.5C 60.8226,152.226 60.4892,155.893 59.5,159.5C 58.1667,147.5 56.8333,147.5 55.5,159.5C 54.5108,155.893 54.1774,152.226 54.5,148.5 Z"/></g>
<g><path style="opacity:1" fill="#4642cc" d="M 89.5,148.5 C 91.3023,149.315 92.3023,150.815 92.5,153C 92.0216,155.226 91.355,157.392 90.5,159.5C 89.5108,155.893 89.1774,152.226 89.5,148.5 Z"/></g>
<g><path style="opacity:1" fill="#ddd620" d="M 99.5,150.5 C 100.725,151.152 101.392,152.319 101.5,154C 101.167,155.167 100.833,156.333 100.5,157.5C 99.5258,155.257 99.1924,152.924 99.5,150.5 Z"/></g>
<g><path style="opacity:1" fill="#554cbd" d="M 105.5,148.5 C 108.666,149.134 111.832,149.468 115,149.5C 116.315,153.141 115.149,155.474 111.5,156.5C 116.363,158.675 115.697,159.675 109.5,159.5C 108.962,147.759 107.628,147.759 105.5,159.5C 104.242,155.79 104.242,152.123 105.5,148.5 Z"/></g>
<g><path style="opacity:1" fill="#d4c828" d="M 111.5,150.5 C 113.465,150.948 113.798,151.948 112.5,153.5C 111.614,152.675 111.281,151.675 111.5,150.5 Z"/></g>
<g><path style="opacity:1" fill="#4441c5" d="M 263.5,147.5 C 264.794,149.048 265.461,151.048 265.5,153.5C 265.167,155.5 264.833,157.5 264.5,159.5C 263.509,155.555 263.176,151.555 263.5,147.5 Z"/></g>
<g><path style="opacity:1" fill="#4945c8" d="M 116.5,148.5 C 118.5,148.5 120.5,148.5 122.5,148.5C 122.823,152.226 122.489,155.893 121.5,159.5C 120.167,147.5 118.833,147.5 117.5,159.5C 116.511,155.893 116.177,152.226 116.5,148.5 Z"/></g>
<g><path style="opacity:1" fill="#5a50bd" d="M 274.5,148.5 C 276.833,148.5 279.167,148.5 281.5,148.5C 281.5,153.167 281.5,157.833 281.5,162.5C 279.076,162.808 276.743,162.474 274.5,161.5C 276.045,160.548 277.712,160.215 279.5,160.5C 279.5,159.5 279.5,158.5 279.5,157.5C 277.833,157.5 276.167,157.5 274.5,157.5C 274.5,154.5 274.5,151.5 274.5,148.5 Z"/></g>
<g><path style="opacity:1" fill="#f2e627" d="M 276.5,150.5 C 277.5,150.5 278.5,150.5 279.5,150.5C 279.66,152.199 279.494,153.866 279,155.5C 278.333,154.167 277.667,154.167 277,155.5C 276.506,153.866 276.34,152.199 276.5,150.5 Z"/></g>
<g><path style="opacity:1" fill="#3f38cd" d="M 321.5,147.5 C 323.094,150.061 324.094,153.061 324.5,156.5C 325.167,153.833 325.833,151.167 326.5,148.5C 327.489,152.107 327.823,155.774 327.5,159.5C 325.5,159.5 323.5,159.5 321.5,159.5C 321.5,155.5 321.5,151.5 321.5,147.5 Z"/></g>
<g><path style="opacity:1" fill="#524dbb" d="M 358.5,148.5 C 363.239,147.407 365.239,149.24 364.5,154C 365.239,158.76 363.239,160.593 358.5,159.5C 358.5,155.833 358.5,152.167 358.5,148.5 Z"/></g>
<g><path style="opacity:1" fill="#eade25" d="M 360.5,150.5 C 361.725,151.152 362.392,152.319 362.5,154C 362.333,155.167 362.167,156.333 362,157.5C 360.648,155.406 360.148,153.073 360.5,150.5 Z"/></g>
<g><path style="opacity:1" fill="#413bc0" d="M 389.5,149.5 C 389.5,152.167 389.5,154.833 389.5,157.5C 389.44,158.043 389.107,158.376 388.5,158.5C 387.52,155.914 387.187,153.247 387.5,150.5C 386.5,150.5 385.5,150.5 384.5,150.5C 384.817,153.572 384.484,156.572 383.5,159.5C 383.003,156.656 382.67,153.489 382.5,150C 382.833,147.833 383.167,145.667 383.5,143.5C 384.429,144.689 384.762,146.022 384.5,147.5C 386.514,147.392 388.18,148.058 389.5,149.5 Z"/></g>
<g><path style="opacity:1" fill="#3f3cca" d="M 37.5,148.5 C 39.288,148.215 40.9547,148.548 42.5,149.5C 41.675,150.386 40.675,150.719 39.5,150.5C 39.5,152.833 39.5,155.167 39.5,157.5C 40.675,157.281 41.675,157.614 42.5,158.5C 40.9547,159.452 39.288,159.785 37.5,159.5C 37.5,155.833 37.5,152.167 37.5,148.5 Z"/></g>
<g><path style="opacity:1" fill="#413fce" d="M 163.5,148.5 C 168.675,147.507 170.509,149.507 169,154.5C 164.774,155.605 164.607,156.938 168.5,158.5C 166.955,159.452 165.288,159.785 163.5,159.5C 163.5,155.833 163.5,152.167 163.5,148.5 Z"/></g>
<g><path style="opacity:1" fill="#ecdc1b" d="M 165.5,150.5 C 167.465,150.948 167.798,151.948 166.5,153.5C 165.614,152.675 165.281,151.675 165.5,150.5 Z"/></g>
<g><path style="opacity:1" fill="#3435d1" d="M 198.5,144.5 C 199.809,146.571 200.475,149.071 200.5,152C 200.167,154.5 199.833,157 199.5,159.5C 198.506,154.544 198.173,149.544 198.5,144.5 Z"/></g>
<g><path style="opacity:1" fill="#3f43c3" d="M 236.5,148.5 C 240.5,148.5 244.5,148.5 248.5,148.5C 248.823,152.226 248.489,155.893 247.5,159.5C 246.52,156.914 246.187,154.247 246.5,151.5C 245.5,151.5 244.5,151.5 243.5,151.5C 242.833,162.167 242.167,162.167 241.5,151.5C 240.5,151.5 239.5,151.5 238.5,151.5C 238.813,154.247 238.48,156.914 237.5,159.5C 236.511,155.893 236.177,152.226 236.5,148.5 Z"/></g>
<g><path style="opacity:1" fill="#3535d5" d="M 302.5,148.5 C 303.787,149.871 304.453,151.705 304.5,154C 304.167,155.833 303.833,157.667 303.5,159.5C 302.511,155.893 302.177,152.226 302.5,148.5 Z"/></g>
<g><path style="opacity:1" fill="#f2df2b" d="M 331.5,155.5 C 333.337,155.639 333.67,156.306 332.5,157.5C 331.702,157.043 331.369,156.376 331.5,155.5 Z"/></g>
<g><path style="opacity:1" fill="#4643c8" d="M 75.5,147.5 C 77.1667,147.5 78.8333,147.5 80.5,147.5C 80.5,148.5 80.5,149.5 80.5,150.5C 79.1667,150.5 77.8333,150.5 76.5,150.5C 76.5,152.833 76.5,155.167 76.5,157.5C 77.9778,157.238 79.3112,157.571 80.5,158.5C 78.6471,159.76 76.8138,159.76 75,158.5C 74.2446,154.745 74.4113,151.078 75.5,147.5 Z"/></g>
<g><path style="opacity:1" fill="#5847c6" d="M 30.5,148.5 C 32.1667,148.5 33.8333,148.5 35.5,148.5C 35.5,150.833 35.5,153.167 35.5,155.5C 31.6646,156.004 31.6646,157.004 35.5,158.5C 33.9547,159.452 32.288,159.785 30.5,159.5C 30.5,155.833 30.5,152.167 30.5,148.5 Z"/></g>
<g><path style="opacity:1" fill="#3133d3" d="M 132.5,148.5 C 134.5,148.5 136.5,148.5 138.5,148.5C 138.5,152.167 138.5,155.833 138.5,159.5C 136.5,159.5 134.5,159.5 132.5,159.5C 132.5,155.833 132.5,152.167 132.5,148.5 Z"/></g>
<g><path style="opacity:1" fill="#e6df00" d="M 134.5,150.5 C 135.725,151.152 136.392,152.319 136.5,154C 136.167,155.167 135.833,156.333 135.5,157.5C 134.526,155.257 134.192,152.924 134.5,150.5 Z"/></g>
<g><path style="opacity:1" fill="#504dbe" d="M 62.5,148.5 C 64.5,148.5 66.5,148.5 68.5,148.5C 68.5,154.167 68.5,159.833 68.5,165.5C 66.5,165.5 64.5,165.5 62.5,165.5C 62.5,164.5 62.5,163.5 62.5,162.5C 63.8333,162.5 65.1667,162.5 66.5,162.5C 66.5,160.833 66.5,159.167 66.5,157.5C 65.1667,157.5 63.8333,157.5 62.5,157.5C 62.5,154.5 62.5,151.5 62.5,148.5 Z"/></g>
<g><path style="opacity:1" fill="#f6e82d" d="M 64.5,150.5 C 65.6491,150.791 66.3158,151.624 66.5,153C 66.1667,153.833 65.8333,154.667 65.5,155.5C 64.5481,153.955 64.2148,152.288 64.5,150.5 Z"/></g>
<g><path style="opacity:0.102" fill="#fefffe" d="M 385.5,164.5 C 386.833,165.167 386.833,165.167 385.5,164.5 Z"/></g>
</svg>
