<?xml version="1.0" encoding="UTF-8"?>
<svg version="1.1" xmlns="http://www.w3.org/2000/svg" width="393" height="170">
<path d="M0 0 C2.69082872 0.17635452 5.32851446 0.61835921 8 1 C8.66 2.65 9.32 4.3 10 6 C11.485 5.505 11.485 5.505 13 5 C14.37722128 4.96450461 15.75637384 4.98453069 17.1328125 5.04296875 C29.56201703 5.42645678 29.56201703 5.42645678 41 1 C46.38588778 -0.68308993 51.03802155 0.49916286 56 3 C58 6 58 6 57.6875 8.125 C57.3471875 9.548125 57.3471875 9.548125 57 11 C56.61746458 13.99484965 56.30753788 16.99659815 56 20 C56.99 20 57.98 20 59 20 C58.67 21.65 58.34 23.3 58 25 C53.35476167 26.73742091 48.84267587 27.53580044 43.9375 28.0625 C38.54506831 28.64992506 38.54506831 28.64992506 33.2109375 29.6171875 C30.09191031 30.15723108 27.8931177 29.14379072 25 28 C24.67 29.32 24.34 30.64 24 32 C18.72 32 13.44 32 8 32 C8 30.68 8 29.36 8 28 C6.96875 28.33 5.9375 28.66 4.875 29 C0.91027412 30.12934616 -2.81384627 30.58787327 -6.859375 29.5 C-15.26363955 27.5369601 -24.61181137 29.25936659 -33.06079102 30.3762207 C-37.88496985 30.96512802 -42.20908561 30.90041691 -47.0246582 30.24682617 C-49.99542875 29.87561754 -52.88232906 30.07036887 -55.859375 30.2578125 C-58 30 -58 30 -59.93334961 28.50219727 C-64.60433143 26.214119 -69.07655393 26.63108583 -74.20703125 26.70703125 C-75.82782845 26.71339851 -75.82782845 26.71339851 -77.48136902 26.71989441 C-80.92533506 26.73665871 -84.36871144 26.77430774 -87.8125 26.8125 C-90.15038216 26.8275497 -92.48827351 26.84123761 -94.82617188 26.85351562 C-100.55098172 26.88655489 -106.27544872 26.93673234 -112 27 C-112.33 27.99 -112.66 28.98 -113 30 C-115.64 30 -118.28 30 -121 30 C-121.33 28.68 -121.66 27.36 -122 26 C-122.83402344 26.22816406 -123.66804687 26.45632812 -124.52734375 26.69140625 C-130.42887203 28.19889858 -135.38049186 29.35630886 -141.40234375 28.33203125 C-145.06239015 27.86420577 -148.68893986 27.87376981 -152.375 27.875 C-153.07794189 27.87072998 -153.78088379 27.86645996 -154.50512695 27.86206055 C-157.60941309 27.86994612 -160.0328908 28.0109636 -163 29 C-164.97146961 29.07151427 -166.94531964 29.08399864 -168.91796875 29.0625 C-170.09037109 29.05476563 -171.26277344 29.04703125 -172.47070312 29.0390625 C-174.92903862 29.01322608 -177.38737201 28.9871877 -179.84570312 28.9609375 C-186.02161783 28.92041756 -191.89132231 29.12344892 -198 30 C-199.99917047 30.0612491 -202.00004774 30.0874994 -204 30.0625 C-204.94875 30.05347656 -205.8975 30.04445312 -206.875 30.03515625 C-207.57625 30.02355469 -208.2775 30.01195312 -209 30 C-209.495 28.515 -209.495 28.515 -210 27 C-210.94875 27.144375 -211.8975 27.28875 -212.875 27.4375 C-214.24958966 27.62798493 -215.62462984 27.81523482 -217 28 C-217.68296143 28.09611572 -218.36592285 28.19223145 -219.06958008 28.29125977 C-226.6861924 29.21754897 -234.16440291 28.86290819 -241.8125 28.5 C-244.38125977 28.37992868 -246.95027272 28.26512814 -249.51953125 28.15625 C-250.64464111 28.10275391 -251.76975098 28.04925781 -252.92895508 27.99414062 C-255.83713792 27.99968927 -258.22631632 28.12881991 -261 29 C-261.99 30.485 -261.99 30.485 -263 32 C-266.2578125 32.29296875 -266.2578125 32.29296875 -270.125 32.1875 C-272.04699219 32.14689453 -272.04699219 32.14689453 -274.0078125 32.10546875 C-274.99523437 32.07066406 -275.98265625 32.03585938 -277 32 C-277.495 30.515 -277.495 30.515 -278 29 C-282.26838806 28.97508574 -286.53673639 28.95703953 -290.80517578 28.94506836 C-292.25407652 28.94007215 -293.70297231 28.93327291 -295.15185547 28.92456055 C-304.50609847 28.78618838 -304.50609847 28.78618838 -313.8125 29.56640625 C-317 30 -317 30 -320 29 C-322.80072667 28.77223006 -325.60000141 28.6198924 -328.40625 28.4765625 C-331.42184471 27.92249239 -332.16556652 27.40177043 -334 25 C-334.34057617 22.73168945 -334.34057617 22.73168945 -334.29296875 20.11328125 C-334.28330078 19.17548828 -334.27363281 18.23769531 -334.26367188 17.27148438 C-334.23853516 16.29501953 -334.21339844 15.31855469 -334.1875 14.3125 C-334.17396484 13.32443359 -334.16042969 12.33636719 -334.14648438 11.31835938 C-334.11112203 8.87835769 -334.06177033 6.43945281 -334 4 C-327.97404025 2.00812548 -325.70574553 2.14712724 -320 5 C-317.22111387 5.69140522 -317.22111387 5.69140522 -315 6 C-314.67 4.68 -314.34 3.36 -314 2 C-304.8726128 0.39748164 -304.8726128 0.39748164 -301.375 2.8125 C-300 5 -300 5 -300 7 C-297.69 7 -295.38 7 -293 7 C-292.67 5.35 -292.34 3.7 -292 2 C-287.38 2 -282.76 2 -278 2 C-278 2.99 -278 3.98 -278 5 C-277.16855469 4.97679687 -276.33710938 4.95359375 -275.48046875 4.9296875 C-274.39378906 4.91164062 -273.30710937 4.89359375 -272.1875 4.875 C-271.10855469 4.85179687 -270.02960938 4.82859375 -268.91796875 4.8046875 C-266 5 -266 5 -263 7 C-262.34 6.67 -261.68 6.34 -261 6 C-259.00039988 5.960008 -256.99952758 5.95653201 -255 6 C-254.67 4.68 -254.34 3.36 -254 2 C-251.36 1.67 -248.72 1.34 -246 1 C-245.505 1.99 -245.505 1.99 -245 3 C-244.18015625 2.97679687 -243.3603125 2.95359375 -242.515625 2.9296875 C-240.89914063 2.90261719 -240.89914063 2.90261719 -239.25 2.875 C-238.18265625 2.85179687 -237.1153125 2.82859375 -236.015625 2.8046875 C-233.07529894 2.99512313 -231.47638122 3.47329896 -229 5 C-229 5.66 -229 6.32 -229 7 C-228.17242187 6.67257813 -227.34484375 6.34515625 -226.4921875 6.0078125 C-222.61779908 4.88970041 -219.11167677 4.77456047 -215.125 4.875 C-214.09246094 4.88853516 -214.09246094 4.88853516 -213.0390625 4.90234375 C-211.35922162 4.92567487 -209.67956254 4.96153674 -208 5 C-207.505 5.99 -207.505 5.99 -207 7 C-206.28972656 6.6803125 -205.57945312 6.360625 -204.84765625 6.03125 C-201.0916251 4.67104119 -197.58224272 4.56350861 -193.62109375 4.34375 C-190.96243561 3.99507352 -189.34043361 3.24428116 -187 2 C-182.90140754 1.66542102 -181.48804095 1.67463937 -178 4 C-174.75028168 4.4668636 -174.75028168 4.4668636 -171.0625 4.625 C-170.40096924 4.66222168 -169.73943848 4.69944336 -169.05786133 4.73779297 C-158.73936471 5.91675144 -158.73936471 5.91675144 -149 4 C-143.46153846 3.76923077 -143.46153846 3.76923077 -141 5 C-140.34 3.68 -139.68 2.36 -139 1 C-134.25 1.75 -134.25 1.75 -132 4 C-130.05887211 4.03290047 -128.1164584 4.05712409 -126.17578125 4.00390625 C-123.04150565 3.99827918 -120.08822412 4.48529598 -117 5 C-117 4.34 -117 3.68 -117 3 C-116.28457031 3.0721875 -115.56914062 3.144375 -114.83203125 3.21875 C-104.9399061 4.14013811 -95.17050177 4.52180712 -85.29980469 3.23828125 C-77.20514488 2.39959887 -69.01503514 3.18337718 -60.9375 3.875 C-59.89400391 3.95363281 -58.85050781 4.03226563 -57.77539062 4.11328125 C-56.78603516 4.19707031 -55.79667969 4.28085938 -54.77734375 4.3671875 C-53.88265381 4.44050293 -52.98796387 4.51381836 -52.06616211 4.58935547 C-51.04341187 4.79262451 -51.04341187 4.79262451 -50 5 C-49.67 5.66 -49.34 6.32 -49 7 C-47.515 6.01 -47.515 6.01 -46 5 C-43.57983398 4.75708008 -43.57983398 4.75708008 -40.74609375 4.76953125 C-39.72708984 4.77146484 -38.70808594 4.77339844 -37.65820312 4.77539062 C-36.59537109 4.78763672 -35.53253906 4.79988281 -34.4375 4.8125 C-33.37080078 4.81314453 -32.30410156 4.81378906 -31.20507812 4.81445312 C-23.28075953 4.85962024 -23.28075953 4.85962024 -21 6 C-20.67 4.68 -20.34 3.36 -20 2 C-18.54207116 1.94600264 -17.08357288 1.90720823 -15.625 1.875 C-14.81289063 1.85179687 -14.00078125 1.82859375 -13.1640625 1.8046875 C-11 2 -11 2 -9 4 C-6.67724823 4.40047444 -4.34260643 4.7397104 -2 5 C-1.855625 4.360625 -1.71125 3.72125 -1.5625 3.0625 C-1 1 -1 1 0 0 Z M-251 6 C-252.4606285 8.64738916 -253 9.89448334 -253 13 C-254.32 13 -255.64 13 -257 13 C-257 15.31 -257 17.62 -257 20 C-255.68 20 -254.36 20 -253 20 C-253 20.66 -253 21.32 -253 22 C-254.65 21.67 -256.3 21.34 -258 21 C-258.33 17.37 -258.66 13.74 -259 10 C-261.27216848 11.83737827 -261.27216848 11.83737827 -261.1953125 14.6015625 C-261.17210937 15.59929687 -261.14890625 16.59703125 -261.125 17.625 C-261.10695313 18.62789062 -261.08890625 19.63078125 -261.0703125 20.6640625 C-261.04710937 21.43492187 -261.02390625 22.20578125 -261 23 C-257.63351709 24.26243109 -254.81921731 23.76297046 -251.32763672 23.2578125 C-246.9194869 22.76955928 -242.49123422 22.93861768 -238.0625 23 C-236.1784411 23.02537453 -234.29431768 23.0464532 -232.41015625 23.0625 C-231.17471069 23.07990234 -231.17471069 23.07990234 -229.91430664 23.09765625 C-227.99050041 23.21388809 -227.99050041 23.21388809 -227 22 C-226.72046781 19.9412232 -226.55265649 17.88271568 -226.37890625 15.8125 C-226.19134766 14.9153125 -226.19134766 14.9153125 -226 14 C-225.34 13.67 -224.68 13.34 -224 13 C-224 15.97 -224 18.94 -224 22 C-222.02 22 -220.04 22 -218 22 C-218 21.34 -218 20.68 -218 20 C-219.32 20 -220.64 20 -222 20 C-222 19.34 -222 18.68 -222 18 C-220.68 17.67 -219.36 17.34 -218 17 C-218 15.35 -218 13.7 -218 12 C-222.0527516 11.01751476 -225.83861737 10.91840426 -230 11 C-230.33 9.35 -230.66 7.7 -231 6 C-231.268125 6.639375 -231.53625 7.27875 -231.8125 7.9375 C-233 10 -233 10 -236 11 C-236 13.97 -236 16.94 -236 20 C-236.66 20 -237.32 20 -238 20 C-238 16.04 -238 12.08 -238 8 C-238.886875 8.309375 -239.77375 8.61875 -240.6875 8.9375 C-243.46709155 9.8290671 -246.13136375 10.49377007 -249 11 C-249 9.35 -249 7.7 -249 6 C-249.66 6 -250.32 6 -251 6 Z M44 6 C43.87625 6.639375 43.7525 7.27875 43.625 7.9375 C43.41875 8.618125 43.2125 9.29875 43 10 C42.01 10.495 42.01 10.495 41 11 C41 12.65 41 14.3 41 16 C40.34 16 39.68 16 39 16 C38.67 14.35 38.34 12.7 38 11 C37.01 11.495 37.01 11.495 36 12 C36 13.32 36 14.64 36 16 C35.34 16 34.68 16 34 16 C34 14.35 34 12.7 34 11 C33.34 11 32.68 11 32 11 C32 13.31 32 15.62 32 18 C32.66 18 33.32 18 34 18 C34 19.32 34 20.64 34 22 C34.66 22 35.32 22 36 22 C36 20.68 36 19.36 36 18 C36.99 18 37.98 18 39 18 C39 19.32 39 20.64 39 22 C39.66 22 40.32 22 41 22 C41 20.68 41 19.36 41 18 C41.66 18 42.32 18 43 18 C43.33 19.32 43.66 20.64 44 22 C44.99 21.67 45.98 21.34 47 21 C47.33 17.37 47.66 13.74 48 10 C47.34 10 46.68 10 46 10 C46 8.68 46 7.36 46 6 C45.34 6 44.68 6 44 6 Z M-289 7 C-290.70532323 8.94009522 -290.70532323 8.94009522 -292 11 C-291.67 11.66 -291.34 12.32 -291 13 C-291.99 13 -292.98 13 -294 13 C-294 15.31 -294 17.62 -294 20 C-293.01 20 -292.02 20 -291 20 C-291 20.66 -291 21.32 -291 22 C-292.65 22 -294.3 22 -296 22 C-296 19.36 -296 16.72 -296 14 C-296.66 13.67 -297.32 13.34 -298 13 C-298 14.65 -298 16.3 -298 18 C-298.99 18 -299.98 18 -301 18 C-301 18.66 -301 19.32 -301 20 C-300.01 20 -299.02 20 -298 20 C-297.67 20.99 -297.34 21.98 -297 23 C-291.98391475 24.0176403 -287.21391694 24.11856434 -282.125 24.0625 C-281.34125 24.05798828 -280.5575 24.05347656 -279.75 24.04882812 C-277.83329986 24.03714093 -275.91663952 24.01920908 -274 24 C-273.855625 24.639375 -273.71125 25.27875 -273.5625 25.9375 C-273.18992819 27.97545146 -273.18992819 27.97545146 -272 29 C-269.36 29 -266.72 29 -264 29 C-264.495 20.09 -264.495 20.09 -265 11 C-267.70828288 9.64585856 -269.8544747 9.90426684 -272.875 9.9375 C-273.92429687 9.94652344 -274.97359375 9.95554688 -276.0546875 9.96484375 C-277.02664063 9.97644531 -277.99859375 9.98804688 -279 10 C-281.33333333 10 -283.66666667 10 -286 10 C-286 9.01 -286 8.02 -286 7 C-286.99 7 -287.98 7 -289 7 Z M2 5 C1.01155049 8.94647618 1.03808095 12.27392964 1.4375 16.3125 C1.59025391 17.91544922 1.59025391 17.91544922 1.74609375 19.55078125 C1.82988281 20.35902344 1.91367187 21.16726562 2 22 C0.02 22 -1.96 22 -4 22 C-4 19.69 -4 17.38 -4 15 C-2.68 15 -1.36 15 0 15 C0 14.34 0 13.68 0 13 C-1.32 13 -2.64 13 -4 13 C-4.495 11.515 -4.495 11.515 -5 10 C-6.28612676 11.05978933 -6.28612676 11.05978933 -6.09765625 13.50390625 C-6.08605469 14.51324219 -6.07445312 15.52257812 -6.0625 16.5625 C-6.05347656 17.57441406 -6.04445313 18.58632812 -6.03515625 19.62890625 C-6.02355469 20.41136719 -6.01195312 21.19382813 -6 22 C-7.98 21.67 -9.96 21.34 -12 21 C-12 18.03 -12 15.06 -12 12 C-12.99 12.33 -13.98 12.66 -15 13 C-14.67 15.97 -14.34 18.94 -14 22 C-14.99 22 -15.98 22 -17 22 C-17 19.03 -17 16.06 -17 13 C-17.66 12.67 -18.32 12.34 -19 12 C-19 15.3 -19 18.6 -19 22 C-19.66 22 -20.32 22 -21 22 C-21 18.37 -21 14.74 -21 11 C-21.33 11.66 -21.66 12.32 -22 13 C-22.99 13 -23.98 13 -25 13 C-25 15.97 -25 18.94 -25 22 C-25.66 22 -26.32 22 -27 22 C-27 18.37 -27 14.74 -27 11 C-27.66 11 -28.32 11 -29 11 C-29 14.63 -29 18.26 -29 22 C-29.66 22 -30.32 22 -31 22 C-31 18.04 -31 14.08 -31 10 C-33.64 10 -36.28 10 -39 10 C-39 14.95 -39 19.9 -39 25 C-38.34 25.33 -37.68 25.66 -37 26 C-37 24.68 -37 23.36 -37 22 C-36.42131165 22.16265854 -35.84262329 22.32531708 -35.24639893 22.49290466 C-31.6344302 23.30825962 -27.98110114 23.12111581 -24.296875 23.09765625 C-23.45908508 23.0962413 -22.62129517 23.09482635 -21.75811768 23.09336853 C-19.08870843 23.08778197 -16.4193838 23.07523194 -13.75 23.0625 C-11.93750121 23.05748326 -10.12500111 23.05292066 -8.3125 23.04882812 C-3.87496752 23.03781694 0.56250191 23.02056155 5 23 C4.34 22.67 3.68 22.34 3 22 C3.33 16.39 3.66 10.78 4 5 C3.34 5 2.68 5 2 5 Z M-97 11 C-97 14.63 -97 18.26 -97 22 C-96.34 22 -95.68 22 -95 22 C-95 19.36 -95 16.72 -95 14 C-94.01 14 -93.02 14 -92 14 C-92 16.64 -92 19.28 -92 22 C-91.34 22 -90.68 22 -90 22 C-90 19.36 -90 16.72 -90 14 C-89.01 14 -88.02 14 -87 14 C-87 16.64 -87 19.28 -87 22 C-86.34 22 -85.68 22 -85 22 C-85 18.37 -85 14.74 -85 11 C-88.96 11 -92.92 11 -97 11 Z M12 11 C10.79438816 11.98267859 10.79438816 11.98267859 10.90234375 13.84765625 C10.91394531 14.57855469 10.92554688 15.30945313 10.9375 16.0625 C10.958125 17.361875 10.97875 18.66125 11 20 C12.65 20 14.3 20 16 20 C16 21.65 16 23.3 16 25 C14.68 25 13.36 25 12 25 C12.33 25.99 12.66 26.98 13 28 C14.65 27.67 16.3 27.34 18 27 C18 21.72 18 16.44 18 11 C16.02 11 14.04 11 12 11 Z M-161 12 C-161 15.3 -161 18.6 -161 22 C-160.34 22 -159.68 22 -159 22 C-159 18.7 -159 15.4 -159 12 C-159.66 12 -160.32 12 -161 12 Z M-208 14 C-207.67 16.31 -207.34 18.62 -207 21 C-206.34 21 -205.68 21 -205 21 C-205.66 18.69 -206.32 16.38 -207 14 C-207.33 14 -207.66 14 -208 14 Z " fill="#CFC64E" transform="translate(334,138)"/>
<path d="M0 0 C2.625 0.375 2.625 0.375 5 1 C5.08226668 4.04386724 4.97608217 6.07175348 4 9 C5.13839031 11.5856462 6.32522329 13.97501368 7.6875 16.4375 C8.04005859 17.10587891 8.39261719 17.77425781 8.75585938 18.46289062 C10.74167894 22.12594718 12.60754001 25.46376318 16 28 C18.4483494 28.71382937 18.4483494 28.71382937 21 28 C25.81429991 24.41273305 30.95404276 19.81482608 32.625 13.875 C32.810625 12.451875 32.810625 12.451875 33 11 C34.32 11 35.64 11 37 11 C37.6875 12.6875 37.6875 12.6875 38 15 C37.01 16.65 36.02 18.3 35 20 C33.35 27.26 31.7 34.52 30 42 C11.85 42 -6.3 42 -25 42 C-26.59733196 38.80533608 -27.45574719 36.57904631 -28.21875 33.19140625 C-28.53392578 31.82338867 -28.53392578 31.82338867 -28.85546875 30.42773438 C-29.17451172 29.00944336 -29.17451172 29.00944336 -29.5 27.5625 C-29.92340567 25.68796761 -30.35037997 23.81423702 -30.78125 21.94140625 C-30.96751953 21.11326416 -31.15378906 20.28512207 -31.34570312 19.43188477 C-32.03914827 16.85449408 -32.9638666 14.457531 -34 12 C-32.35 11.67 -30.7 11.34 -29 11 C-28.87625 11.7425 -28.7525 12.485 -28.625 13.25 C-27.15509368 19.71758782 -23.07573702 23.9146507 -18 28 C-14.95368624 29.41690945 -14.95368624 29.41690945 -12 28 C-6.78162648 22.97964512 -2.14509671 15.93733404 0 9 C-0.17980923 6.20296752 -0.81692733 4.59149252 -2 2 C-1.34 1.34 -0.68 0.68 0 0 Z " fill="#EEE004" transform="translate(187,4)"/>
<path d="M0 0 C1.98 0 3.96 0 6 0 C6 0.66 6 1.32 6 2 C6.515625 1.67 7.03125 1.34 7.5625 1 C11.58257354 -0.64926094 15.41742646 -0.64926094 19.4375 1 C20.2109375 1.495 20.2109375 1.495 21 2 C21.99 1.34 22.98 0.68 24 0 C27.43160826 -0.43807765 29.26259986 -0.48983492 32.17578125 1.4453125 C34.90048358 5.26106266 34.43534005 8.68778345 34.25 13.25 C34.23195312 14.09046875 34.21390625 14.9309375 34.1953125 15.796875 C34.14830798 17.86507395 34.07656724 19.93268441 34 22 C32.02 22 30.04 22 28 22 C27.67 16.72 27.34 11.44 27 6 C24.525 5.505 24.525 5.505 22 5 C21.67 10.61 21.34 16.22 21 22 C18.69 22 16.38 22 14 22 C13.67 17.05 13.34 12.1 13 7 C11.68 6.67 10.36 6.34 9 6 C7.00383446 7.99616554 7.59016573 11.81701963 7.4375 14.5625 C7.39431641 15.27341797 7.35113281 15.98433594 7.30664062 16.71679688 C7.20028223 18.47761912 7.09961154 20.2387832 7 22 C4.69 22 2.38 22 0 22 C0 14.74 0 7.48 0 0 Z " fill="#070EEA" transform="translate(195,75)"/>
<path d="M0 0 C0.99 0.66 1.98 1.32 3 2 C3 1.34 3 0.68 3 0 C4.98 0 6.96 0 9 0 C9.14536813 4.39548491 9.23409948 8.79035087 9.3125 13.1875 C9.35439453 14.43337891 9.39628906 15.67925781 9.43945312 16.96289062 C9.56178997 26.08921929 9.56178997 26.08921929 6.9375 30.34375 C3.25413908 32.4205386 0.89259342 32.50899969 -3.3125 32.3125 C-4.56675781 32.26738281 -5.82101563 32.22226563 -7.11328125 32.17578125 C-8.54220703 32.08876953 -8.54220703 32.08876953 -10 32 C-10 30.35 -10 28.7 -10 27 C-8.96939453 26.97873047 -8.96939453 26.97873047 -7.91796875 26.95703125 C-5.19339102 26.81281183 -2.6616416 26.60862014 0 26 C2.21306951 23.62744885 2.21306951 23.62744885 3 21 C2.01 21.66 1.02 22.32 0 23 C-3.09304324 23.16810018 -6.00530711 22.7821959 -9 22 C-11.7503664 19.4215315 -12.83510664 16.69332795 -13.203125 12.9140625 C-13.30168636 8.10098256 -13.16773939 4.89875617 -10 1 C-6.87293041 -0.5635348 -3.42017557 -0.39958487 0 0 Z M-5.8125 6.125 C-7.55198782 8.87155972 -7.39769128 10.81846974 -7 14 C-5.93654948 15.98029682 -5.93654948 15.98029682 -4 17 C-1.45741537 17.50014953 -1.45741537 17.50014953 1 17 C3.44897847 13.32653229 3.31537716 11.33643601 3 7 C1.17796419 4.77033253 1.17796419 4.77033253 -1.4375 4.6875 C-3.98737247 4.81614348 -3.98737247 4.81614348 -5.8125 6.125 Z " fill="#070EE6" transform="translate(126,75)"/>
<path d="M0 0 C1.98 0 3.96 0 6 0 C6 3.63 6 7.26 6 11 C8.82063988 8.33606234 10.93844353 6.11249976 12.8125 2.6875 C15 0 15 0 17.02734375 -0.37890625 C19.25 -0.375 19.25 -0.375 23 0 C21.61839132 4.02969199 19.64319402 6.69600747 17 10 C15.44557202 12.20800131 15.44557202 12.20800131 15 15 C16.36187383 17.50476795 17.64039755 19.47412722 19.375 21.6875 C24 27.815625 24 27.815625 24 30 C19.0877193 30.96491228 19.0877193 30.96491228 16 30 C8 21.77027027 8 21.77027027 8 17 C7.34 17 6.68 17 6 17 C6 21.29 6 25.58 6 30 C4.02 30 2.04 30 0 30 C0 20.1 0 10.2 0 0 Z " fill="#0710DE" transform="translate(249,67)"/>
<path d="M0 0 C1.98 0 3.96 0 6 0 C6 10.56 6 21.12 6 32 C3.1125 32.103125 0.225 32.20625 -2.75 32.3125 C-3.65331055 32.35802002 -4.55662109 32.40354004 -5.48730469 32.45043945 C-11.4188375 32.55318728 -11.4188375 32.55318728 -14.515625 29.60546875 C-16.93363373 25.36122711 -17.33136395 22.97045932 -17 18 C-15.82171388 14.87754179 -14.91363002 12.74443927 -12.3125 10.625 C-8.83175913 9.68425922 -5.59984981 9.88000501 -2 10 C-2 10.66 -2 11.32 -2 12 C-1.34 12 -0.68 12 0 12 C0 8.04 0 4.08 0 0 Z M-8.125 16.0625 C-10.36814577 17.9821286 -10.36814577 17.9821286 -10.375 21.5625 C-10.35639408 25.06110754 -10.35639408 25.06110754 -8 27 C-5.19015752 27.36023622 -3.61758081 27.38332602 -1.1875 25.875 C0.57002414 23.09996189 0.46822746 21.21070255 0 18 C-2.81755756 15.18244244 -4.45090739 14.2254537 -8.125 16.0625 Z " fill="#080DE7" transform="translate(156,65)"/>
<path d="M0 0 C1.98 0 3.96 0 6 0 C6 3.96 6 7.92 6 12 C10.53494237 8.85073447 12.47573449 5.77807401 15 1 C16 0 16 0 17.84765625 -0.09765625 C19.8984375 -0.06510417 21.94921875 -0.03255208 24 0 C22.8782037 1.7936743 21.75245517 3.5848773 20.625 5.375 C19.68527344 6.87160156 19.68527344 6.87160156 18.7265625 8.3984375 C17 11 17 11 15 13 C15.34269887 16.36404397 16.8489208 18.35869194 18.9375 20.9375 C21.20916061 23.85198064 22.88493021 26.43177668 24 30 C21.20888579 30.18302388 18.75309912 30.33387484 16 30 C14.25 28.4375 14.25 28.4375 13 26 C12.65066406 25.42121094 12.30132812 24.84242187 11.94140625 24.24609375 C9 19.370891 9 19.370891 9 17 C8.34 17.33 7.68 17.66 7 18 C6.53101037 20.8159849 6.53101037 20.8159849 6.375 24.0625 C6.26285156 25.71958984 6.26285156 25.71958984 6.1484375 27.41015625 C6.09945312 28.26480469 6.05046875 29.11945313 6 30 C4.02 30 2.04 30 0 30 C0 20.1 0 10.2 0 0 Z " fill="#050CDC" transform="translate(48,67)"/>
<path d="M0 0 C1.98 0 3.96 0 6 0 C6 10.56 6 21.12 6 32 C1 32 1 32 -1 31 C-1.66 31.33 -2.32 31.66 -3 32 C-10.21726041 32.58203713 -10.21726041 32.58203713 -13.4375 30.1875 C-16.28030354 26.20757504 -16.32387146 22.77710398 -16 18 C-14.42275698 14.01933905 -13.58999089 12.39332726 -10 10 C-6.97670744 9.7389212 -4.04123758 9.91184819 -1 10 C-0.67 6.7 -0.34 3.4 0 0 Z M-9 15 C-9.19573608 16.43640171 -9.38127816 17.87419504 -9.5625 19.3125 C-9.66691406 20.11300781 -9.77132813 20.91351563 -9.87890625 21.73828125 C-10.14755178 24.16817116 -10.14755178 24.16817116 -9 27 C-6.36 27 -3.72 27 -1 27 C0.0812391 20.93949386 0.0812391 20.93949386 -1 15 C-3.64 15 -6.28 15 -9 15 Z " fill="#040CE7" transform="translate(303,65)"/>
<path d="M0 0 C2.93423195 1.79646854 4.47205355 2.9441071 6 6 C6.64507919 11.20671061 6.9173523 14.81709835 3.625 19.0625 C-1.12029877 22.56498242 -5.20266131 22.68364843 -11 22 C-13.93423195 20.20353146 -15.47205355 19.0558929 -17 16 C-17.52778794 11.11147238 -17.73000486 7.2334565 -15.1875 2.9375 C-10.87511259 -0.88204313 -5.48783977 -0.65644016 0 0 Z M-9.875 7.6875 C-11.30124388 10.61922354 -11.04230389 11.95326554 -10 15 C-9.34 15.66 -8.68 16.32 -8 17 C-4.17435335 16.81242938 -4.17435335 16.81242938 -1 15 C-0.74996036 11.54178598 -0.74996036 11.54178598 -1 8 C-2.82471891 5.78103864 -2.82471891 5.78103864 -5.4375 5.625 C-8.09516517 5.77213053 -8.09516517 5.77213053 -9.875 7.6875 Z " fill="#0B12E9" transform="translate(184,75)"/>
<path d="M0 0 C17.82 0 35.64 0 54 0 C54 1.98 54 3.96 54 6 C36.18 6 18.36 6 0 6 C0 4.02 0 2.04 0 0 Z " fill="#F2EE00" transform="translate(162,50)"/>
<path d="M0 0 C1.98 0 3.96 0 6 0 C6 0.66 6 1.32 6 2 C6.66 1.67 7.32 1.34 8 1 C10.27734375 0.7265625 10.27734375 0.7265625 12.9375 0.625 C13.81277344 0.57601562 14.68804687 0.52703125 15.58984375 0.4765625 C18 1 18 1 19.8046875 3.00390625 C21.32855682 6.82353947 21.32825352 10.27395674 21.1875 14.3125 C21.16719727 15.42334961 21.16719727 15.42334961 21.14648438 16.55664062 C21.11135979 18.37141075 21.05755972 20.18580288 21 22 C19.02 22 17.04 22 15 22 C14.93941406 21.01257813 14.87882812 20.02515625 14.81640625 19.0078125 C14.73261719 17.72648437 14.64882812 16.44515625 14.5625 15.125 C14.44068359 13.21074219 14.44068359 13.21074219 14.31640625 11.2578125 C14.20793973 8.11699848 14.20793973 8.11699848 13 6 C11.35 6 9.7 6 8 6 C6.5192152 8.9615696 6.64685963 11.83506295 6.4375 15.125 C6.35371094 16.40632813 6.26992187 17.68765625 6.18359375 19.0078125 C6.09271484 20.48894531 6.09271484 20.48894531 6 22 C4.02 22 2.04 22 0 22 C0 14.74 0 7.48 0 0 Z " fill="#0209E2" transform="translate(88,75)"/>
<path d="M0 0 C0.66 0 1.32 0 2 0 C2 1.65 2 3.3 2 5 C6.27786748 4.50639991 9.09567131 3.95216435 13 2 C13 5.96 13 9.92 13 14 C13.66 14 14.32 14 15 14 C15 11.03 15 8.06 15 5 C15.99 4.67 16.98 4.34 18 4 C19.20882096 1.99983534 19.20882096 1.99983534 20 0 C20.12375 0.804375 20.2475 1.60875 20.375 2.4375 C20.58125 3.283125 20.7875 4.12875 21 5 C21.66 5.33 22.32 5.66 23 6 C23 9.63 23 13.26 23 17 C19.54161528 17.02687864 16.08343775 17.04677983 12.625 17.0625 C11.64015625 17.07087891 10.6553125 17.07925781 9.640625 17.08789062 C8.22910156 17.09272461 8.22910156 17.09272461 6.7890625 17.09765625 C5.48509521 17.10551147 5.48509521 17.10551147 4.15478516 17.11352539 C2 17 2 17 0 16 C0 10.72 0 5.44 0 0 Z " fill="#767488" transform="translate(83,144)"/>
<path d="M0 0 C0.33 1.65 0.66 3.3 1 5 C-1.64 5 -4.28 5 -7 5 C-5.50011061 7.99977878 -2.94840874 8.55588143 0 10 C2 12 2 12 2.375 15.4375 C2 19 2 19 0.3359375 20.7109375 C-2.56402665 22.31125217 -4.45966106 22.3050121 -7.75 22.1875 C-9.22726562 22.14689453 -9.22726562 22.14689453 -10.734375 22.10546875 C-11.48203125 22.07066406 -12.2296875 22.03585938 -13 22 C-13.33 20.35 -13.66 18.7 -14 17 C-11.03 17 -8.06 17 -5 17 C-5.33 16.01 -5.66 15.02 -6 14 C-7.155 13.5875 -8.31 13.175 -9.5 12.75 C-13 11 -13 11 -14.1875 7.5625 C-14 4 -14 4 -12.6875 1.5625 C-8.59603846 -0.81625671 -4.6234024 -0.31763833 0 0 Z " fill="#0C16DC" transform="translate(328,75)"/>
<path d="M0 0 C0.66 0 1.32 0 2 0 C2 0.99 2 1.98 2 3 C2.78375 3 3.5675 3 4.375 3 C5.91666667 3 7.45833333 3 9 3 C9.845625 2.979375 10.69125 2.95875 11.5625 2.9375 C14 3 14 3 15 4 C15.07226502 5.85287502 15.0838122 7.70833878 15.0625 9.5625 C15.05347656 10.57441406 15.04445313 11.58632812 15.03515625 12.62890625 C15.02355469 13.41136719 15.01195313 14.19382813 15 15 C14.34 15 13.68 15 13 15 C13 12.03 13 9.06 13 6 C12.34 6 11.68 6 11 6 C11.01160156 6.63808594 11.02320313 7.27617187 11.03515625 7.93359375 C11.04417969 8.75988281 11.05320312 9.58617187 11.0625 10.4375 C11.07410156 11.26121094 11.08570313 12.08492187 11.09765625 12.93359375 C11 15 11 15 10 16 C8.50261876 16.0979057 7.00057108 16.12974864 5.5 16.125 C4.6853125 16.12757813 3.870625 16.13015625 3.03125 16.1328125 C1 16 1 16 0 15 C-0.20839236 13.54704215 -0.36753581 12.0868369 -0.5 10.625 C-0.75521162 7.82678686 -1.1027017 5.69189489 -2 3 C-1.34 3 -0.68 3 0 3 C0 2.01 0 1.02 0 0 Z " fill="#75738A" transform="translate(46,145)"/>
<path d="M0 0 C10.49036431 -0.37024815 10.49036431 -0.37024815 12.828125 1.328125 C14.67772302 3.96688484 14.44692969 5.87149219 14 9 C12.375 11.375 12.375 11.375 10 13 C6.75 13.25 6.75 13.25 4 13 C4 15.64 4 18.28 4 21 C2.68 21 1.36 21 0 21 C0 14.07 0 7.14 0 0 Z M4 2 C4 4.64 4 7.28 4 10 C5.65 10 7.3 10 9 10 C9 7.69 9 5.38 9 3 C7.35 2.67 5.7 2.34 4 2 Z " fill="#1225F6" transform="translate(198,112)"/>
<path d="M0 0 C1.21816406 0.03480469 1.21816406 0.03480469 2.4609375 0.0703125 C3.68683594 0.09738281 3.68683594 0.09738281 4.9375 0.125 C5.87722656 0.15980469 5.87722656 0.15980469 6.8359375 0.1953125 C6.8359375 1.1853125 6.8359375 2.1753125 6.8359375 3.1953125 C4.8559375 3.1953125 2.8759375 3.1953125 0.8359375 3.1953125 C0.8359375 4.5153125 0.8359375 5.8353125 0.8359375 7.1953125 C2.36972053 8.51142758 2.36972053 8.51142758 4.3359375 9.5078125 C6.26953125 10.765625 6.26953125 10.765625 7.8359375 12.1953125 C8.3984375 15.8828125 8.3984375 15.8828125 7.8359375 19.1953125 C5.8359375 21.1953125 5.8359375 21.1953125 3.453125 21.390625 C2.54820313 21.36742187 1.64328125 21.34421875 0.7109375 21.3203125 C-0.65417969 21.29324219 -0.65417969 21.29324219 -2.046875 21.265625 C-2.74554688 21.24242187 -3.44421875 21.21921875 -4.1640625 21.1953125 C-4.4940625 20.2053125 -4.8240625 19.2153125 -5.1640625 18.1953125 C-4.0503125 18.2159375 -2.9365625 18.2365625 -1.7890625 18.2578125 C1.66809671 18.45911968 1.66809671 18.45911968 3.8359375 17.1953125 C2.49789447 13.18118341 0.31178383 12.46525296 -3.1640625 10.1953125 C-5.1640625 7.1953125 -5.1640625 7.1953125 -4.9140625 4.6328125 C-3.98063244 1.59916481 -3.27335777 0.2954294 0 0 Z " fill="#0F1CEA" transform="translate(111.1640625,111.8046875)"/>
<path d="M0 0 C1.98 0 3.96 0 6 0 C6 7.26 6 14.52 6 22 C4.02 22 2.04 22 0 22 C0 14.74 0 7.48 0 0 Z " fill="#0208E8" transform="translate(76,75)"/>
<path d="M0 0 C2.467339 2.2206051 2.96152446 3.43569203 3.1875 6.75 C3.125625 7.4925 3.06375 8.235 3 9 C0.03 9 -2.94 9 -6 9 C-5.34 10.32 -4.68 11.64 -4 13 C-1.69 13 0.62 13 3 13 C2.67 13.99 2.34 14.98 2 16 C0.56344146 16.08131463 -0.8744483 16.13933559 -2.3125 16.1875 C-3.51326172 16.23970703 -3.51326172 16.23970703 -4.73828125 16.29296875 C-7 16 -7 16 -8.765625 14.765625 C-11.05703774 11.48803462 -10.61381518 7.82082707 -10 4 C-7.36413598 -0.1565548 -4.78694756 -0.81479958 0 0 Z M-5 3 C-5.33 4.32 -5.66 5.64 -6 7 C-4.35 7 -2.7 7 -1 7 C-1.33 5.68 -1.66 4.36 -2 3 C-2.99 3 -3.98 3 -5 3 Z " fill="#192CDC" transform="translate(132,117)"/>
<path d="M0 0 C3.4375 0.625 3.4375 0.625 5.375 2.875 C6.4375 5.625 6.4375 5.625 6.4375 9.625 C2.96424819 10.7827506 0.07682552 10.69366652 -3.5625 10.625 C-3.5625 11.285 -3.5625 11.945 -3.5625 12.625 C-0.50402152 13.16872951 2.32522805 13.625 5.4375 13.625 C5.1075 14.615 4.7775 15.605 4.4375 16.625 C-3.74712594 17.24270762 -3.74712594 17.24270762 -6.625 15.0625 C-7.9321217 11.66398358 -8.00649404 9.24038008 -7.5625 5.625 C-5.45621831 1.66519042 -4.45348932 0.78131392 0 0 Z M-3.5625 2.625 C-3.5625 4.275 -3.5625 5.925 -3.5625 7.625 C-1.5825 7.625 0.3975 7.625 2.4375 7.625 C2.4375 5.975 2.4375 4.325 2.4375 2.625 C0.4575 2.625 -1.5225 2.625 -3.5625 2.625 Z " fill="#2838F4" transform="translate(257.5625,116.375)"/>
<path d="M0 0 C6.0546875 -0.1953125 6.0546875 -0.1953125 8 0 C10 2 10 2 10.1953125 5.2578125 C10.16050781 7.17207031 10.16050781 7.17207031 10.125 9.125 C10.10695312 10.40632813 10.08890625 11.68765625 10.0703125 13.0078125 C10.04710937 13.99523437 10.02390625 14.98265625 10 16 C8.35425434 16.02688151 6.70838587 16.04634123 5.0625 16.0625 C4.14597656 16.07410156 3.22945312 16.08570313 2.28515625 16.09765625 C0 16 0 16 -1 15 C-1.04092937 12.66702567 -1.04241723 10.33294775 -1 8 C0.4540625 7.5978125 0.4540625 7.5978125 1.9375 7.1875 C3.4534375 6.5996875 3.4534375 6.5996875 5 6 C5.33 5.01 5.66 4.02 6 3 C3.69 3.33 1.38 3.66 -1 4 C-0.67 2.68 -0.34 1.36 0 0 Z M3 9 C2.67 10.32 2.34 11.64 2 13 C2.99 13.495 2.99 13.495 4 14 C4.66 13.67 5.32 13.34 6 13 C6 11.68 6 10.36 6 9 C5.01 9 4.02 9 3 9 Z " fill="#1728DD" transform="translate(223,117)"/>
<path d="M0 0 C1.9375 1.125 1.9375 1.125 3 3 C3.1875 6.1875 3.1875 6.1875 3 9 C0.03 9 -2.94 9 -6 9 C-5.34 10.32 -4.68 11.64 -4 13 C-2.02 13 -0.04 13 2 13 C2 13.99 2 14.98 2 16 C0.56344146 16.08131463 -0.8744483 16.13933559 -2.3125 16.1875 C-3.51326172 16.23970703 -3.51326172 16.23970703 -4.73828125 16.29296875 C-7 16 -7 16 -8.76953125 14.765625 C-11.0513063 11.4914589 -10.48955101 7.8198769 -10 4 C-7.97247663 -0.88990931 -4.906588 -0.6133235 0 0 Z M-5 3 C-5.33 4.32 -5.66 5.64 -6 7 C-4.02 7 -2.04 7 0 7 C-0.33 5.68 -0.66 4.36 -1 3 C-2.32 3 -3.64 3 -5 3 Z " fill="#1F2FE4" transform="translate(172,117)"/>
<path d="M0 0 C0.66 0 1.32 0 2 0 C2 1.32 2 2.64 2 4 C2.66 4 3.32 4 4 4 C3.67 7.63 3.34 11.26 3 15 C2.01 15.33 1.02 15.66 0 16 C-0.33 14.68 -0.66 13.36 -1 12 C-1.66 12 -2.32 12 -3 12 C-3 13.32 -3 14.64 -3 16 C-3.66 16 -4.32 16 -5 16 C-5 14.68 -5 13.36 -5 12 C-5.99 12 -6.98 12 -8 12 C-8 13.32 -8 14.64 -8 16 C-8.66 16 -9.32 16 -10 16 C-10 14.68 -10 13.36 -10 12 C-10.66 12 -11.32 12 -12 12 C-12 9.69 -12 7.38 -12 5 C-11.34 5 -10.68 5 -10 5 C-10 6.65 -10 8.3 -10 10 C-9.34 10 -8.68 10 -8 10 C-7.67 8.35 -7.34 6.7 -7 5 C-6.34 5.33 -5.68 5.66 -5 6 C-5 7.32 -5 8.64 -5 10 C-4.34 10 -3.68 10 -3 10 C-3 8.35 -3 6.7 -3 5 C-2.34 4.67 -1.68 4.34 -1 4 C-0.34786708 1.97536745 -0.34786708 1.97536745 0 0 Z " fill="#4245B9" transform="translate(378,144)"/>
<path d="M0 0 C0.66 0.33 1.32 0.66 2 1 C1.67 6.28 1.34 11.56 1 17 C1.66 17.33 2.32 17.66 3 18 C-5.25 18 -13.5 18 -22 18 C-21.67 14.37 -21.34 10.74 -21 7 C-20.34 7.33 -19.68 7.66 -19 8 C-19 10.97 -19 13.94 -19 17 C-18.01 17 -17.02 17 -16 17 C-16.33 14.03 -16.66 11.06 -17 8 C-16.01 7.67 -15.02 7.34 -14 7 C-14 9.97 -14 12.94 -14 16 C-12.02 16.33 -10.04 16.66 -8 17 C-8 13.37 -8 9.74 -8 6 C-7.34 5.67 -6.68 5.34 -6 5 C-6 5.99 -6 6.98 -6 8 C-4.68 8 -3.36 8 -2 8 C-2 8.66 -2 9.32 -2 10 C-3.32 10 -4.64 10 -6 10 C-6 12.31 -6 14.62 -6 17 C-4.02 17 -2.04 17 0 17 C-0.12568359 15.66195312 -0.12568359 15.66195312 -0.25390625 14.296875 C-0.35574219 13.12640625 -0.45757812 11.9559375 -0.5625 10.75 C-0.66691406 9.58984375 -0.77132813 8.4296875 -0.87890625 7.234375 C-0.98198087 4.48128523 -0.86213473 2.580018 0 0 Z " fill="#E2DB0E" transform="translate(336,143)"/>
<path d="M0 0 C1.65 0 3.3 0 5 0 C5 7.26 5 14.52 5 22 C3.35 22 1.7 22 0 22 C0 14.74 0 7.48 0 0 Z " fill="#0203D3" transform="translate(277,75)"/>
<path d="M0 0 C0.66 0 1.32 0 2 0 C2 3.3 2 6.6 2 10 C3.32 10 4.64 10 6 10 C6 11.65 6 13.3 6 15 C4.68 15 3.36 15 2 15 C2 15.99 2 16.98 2 18 C3.98 18 5.96 18 8 18 C8.33 16.68 8.66 15.36 9 14 C9 15.65 9 17.3 9 19 C2.9453125 19.1953125 2.9453125 19.1953125 1 19 C0.34 18.34 -0.32 17.68 -1 17 C-1 16.01 -1 15.02 -1 14 C-2.98 14 -4.96 14 -7 14 C-6.34 13.34 -5.68 12.68 -5 12 C-4.53993654 9.79749008 -4.53993654 9.79749008 -4.375 7.375 C-4.30023438 6.55773437 -4.22546875 5.74046875 -4.1484375 4.8984375 C-4.09945312 4.27195313 -4.05046875 3.64546875 -4 3 C-3.34 3 -2.68 3 -2 3 C-2 5.97 -2 8.94 -2 12 C-1.34 12 -0.68 12 0 12 C0 8.04 0 4.08 0 0 Z " fill="#E4DB26" transform="translate(61,148)"/>
<path d="M0 0 C0.33 0.99 0.66 1.98 1 3 C0.34 3 -0.32 3 -1 3 C-0.01 4.485 -0.01 4.485 1 6 C1.4140625 8.26171875 1.4140625 8.26171875 1.625 10.6875 C1.69976562 11.49574219 1.77453125 12.30398437 1.8515625 13.13671875 C1.92503906 14.05904297 1.92503906 14.05904297 2 15 C4.31 15.33 6.62 15.66 9 16 C9 16.33 9 16.66 9 17 C-2.52164009 17.18451025 -2.52164009 17.18451025 -8 16 C-8.33 15.01 -8.66 14.02 -9 13 C-9.99 13 -10.98 13 -12 13 C-12 12.34 -12 11.68 -12 11 C-11.01 11 -10.02 11 -9 11 C-9 9.35 -9 7.7 -9 6 C-8.34 6.33 -7.68 6.66 -7 7 C-7 9.64 -7 12.28 -7 15 C-5.35 15 -3.7 15 -2 15 C-2 14.34 -2 13.68 -2 13 C-2.99 13 -3.98 13 -5 13 C-5 10.69 -5 8.38 -5 6 C-4.01 6 -3.02 6 -2 6 C-2.33 5.01 -2.66 4.02 -3 3 C-2.01 2.01 -1.02 1.02 0 0 Z " fill="#E4DB26" transform="translate(45,145)"/>
<path d="M0 0 C0.33 1.32 0.66 2.64 1 4 C0.21625 3.95875 -0.5675 3.9175 -1.375 3.875 C-4.16116119 3.71271266 -4.16116119 3.71271266 -6 6 C-5.67801034 9.09926819 -5.67801034 9.09926819 -5 12 C-2.92446352 12.5534764 -1.15634036 13 1 13 C0.67 13.99 0.34 14.98 0 16 C-5.21567553 16.42751439 -5.21567553 16.42751439 -8 16 C-10.0625 13.9375 -10.0625 13.9375 -11 11 C-10.87447813 7.42262674 -10.37313053 4.80844948 -8.875 1.5625 C-6.04129554 -0.79892038 -3.55387795 -0.2682172 0 0 Z " fill="#172AEC" transform="translate(247,117)"/>
<path d="M0 0 C1.99954746 -0.04254356 4.00041636 -0.04080783 6 0 C7 1 7 1 7.09765625 3.28515625 C7.08605469 4.20167969 7.07445312 5.11820313 7.0625 6.0625 C7.05347656 6.98160156 7.04445313 7.90070313 7.03515625 8.84765625 C7.02355469 9.55792969 7.01195312 10.26820313 7 11 C5.35 11.33 3.7 11.66 2 12 C1.67 13.32 1.34 14.64 1 16 C0 15 0 15 -0.09765625 11.62109375 C-0.09098369 10.22652923 -0.07902532 8.83198257 -0.0625 7.4375 C-0.05798828 6.72658203 -0.05347656 6.01566406 -0.04882812 5.28320312 C-0.03700864 3.52209987 -0.01907263 1.76103964 0 0 Z " fill="#67679C" transform="translate(295,148)"/>
<path d="M0 0 C0.33 1.32 0.66 2.64 1 4 C0.030625 3.979375 -0.93875 3.95875 -1.9375 3.9375 C-4.87465895 3.64381501 -4.87465895 3.64381501 -6 5 C-6.04092937 7.33297433 -6.04241723 9.66705225 -6 12 C-3.69 12.33 -1.38 12.66 1 13 C0.67 13.99 0.34 14.98 0 16 C-6.0546875 16.1953125 -6.0546875 16.1953125 -8 16 C-10.60186108 13.39813892 -10.29810177 12.17645645 -10.3125 8.5625 C-10.32925781 7.59441406 -10.34601563 6.62632813 -10.36328125 5.62890625 C-10 3 -10 3 -8.7109375 1.1640625 C-5.95309053 -0.71228087 -3.22703162 -0.18266217 0 0 Z " fill="#1020EE" transform="translate(148,117)"/>
<path d="M0 0 C1.98 0 3.96 0 6 0 C6 5.28 6 10.56 6 16 C4.35 16.33 2.7 16.66 1 17 C0.67 16.01 0.34 15.02 0 14 C1.32 14 2.64 14 4 14 C4 12.35 4 10.7 4 9 C2.35 9 0.7 9 -1 9 C-1.09765625 2.84765625 -1.09765625 2.84765625 -1 1 C-0.67 0.67 -0.34 0.34 0 0 Z " fill="#5B59AC" transform="translate(346,149)"/>
<path d="M0 0 C0.33 0 0.66 0 1 0 C1 4.29 1 8.58 1 13 C-5.75 15.25 -5.75 15.25 -9 14 C-9.05391993 12.20866022 -9.09275571 10.41686101 -9.125 8.625 C-9.14820312 7.62726563 -9.17140625 6.62953125 -9.1953125 5.6015625 C-9 3 -9 3 -7 1 C-6.67 4.63 -6.34 8.26 -6 12 C-4.35 12.33 -2.7 12.66 -1 13 C-1 12.34 -1 11.68 -1 11 C-2.32 11 -3.64 11 -5 11 C-5 8.69 -5 6.38 -5 4 C-3.68 4 -2.36 4 -1 4 C-0.67 2.68 -0.34 1.36 0 0 Z " fill="#E9DD28" transform="translate(82,147)"/>
<path d="M0 0 C0.66 0 1.32 0 2 0 C2 3.96 2 7.92 2 12 C2.66 12 3.32 12 4 12 C4 8.37 4 4.74 4 1 C4.66 1 5.32 1 6 1 C6 4.63 6 8.26 6 12 C6.66 12 7.32 12 8 12 C8 9.03 8 6.06 8 3 C8.99 3 9.98 3 11 3 C11.33 2.34 11.66 1.68 12 1 C12.33 4.96 12.66 8.92 13 13 C8.71 13 4.42 13 0 13 C0 8.71 0 4.42 0 0 Z " fill="#E2DB0E" transform="translate(301,148)"/>
<path d="M0 0 C2.97 0.495 2.97 0.495 6 1 C6 6.61 6 12.22 6 18 C4.02 18 2.04 18 0 18 C0 17.01 0 16.02 0 15 C1.32 15 2.64 15 4 15 C4 13.35 4 11.7 4 10 C2.68 10 1.36 10 0 10 C0 6.7 0 3.4 0 0 Z " fill="#6062A8" transform="translate(63,148)"/>
<path d="M0 0 C3.96 0 7.92 0 12 0 C12 3.63 12 7.26 12 11 C11.34 11 10.68 11 10 11 C10 8.36 10 5.72 10 3 C9.01 3 8.02 3 7 3 C7 5.64 7 8.28 7 11 C6.34 11 5.68 11 5 11 C5 8.36 5 5.72 5 3 C4.01 3 3.02 3 2 3 C2 5.64 2 8.28 2 11 C1.34 11 0.68 11 0 11 C0 7.37 0 3.74 0 0 Z " fill="#3441C0" transform="translate(237,149)"/>
<path d="M0 0 C1.32 0 2.64 0 4 0 C4 6.93 4 13.86 4 21 C2.68 21 1.36 21 0 21 C0 14.07 0 7.14 0 0 Z " fill="#0325E4" transform="translate(214,112)"/>
<path d="M0 0 C0.8146875 0.00257813 1.629375 0.00515625 2.46875 0.0078125 C3.2834375 0.00523437 4.098125 0.00265625 4.9375 0 C6.96875 0.1328125 6.96875 0.1328125 7.96875 1.1328125 C8.00938832 2.79898365 8.011471 4.46669345 7.96875 6.1328125 C6.64875 6.4628125 5.32875 6.7928125 3.96875 7.1328125 C3.96875 7.7928125 3.96875 8.4528125 3.96875 9.1328125 C5.28875 9.1328125 6.60875 9.1328125 7.96875 9.1328125 C7.96875 9.7928125 7.96875 10.4528125 7.96875 11.1328125 C5.98875 11.1328125 4.00875 11.1328125 1.96875 11.1328125 C1.96875 8.1628125 1.96875 5.1928125 1.96875 2.1328125 C0.97875 2.6278125 0.97875 2.6278125 -0.03125 3.1328125 C-0.49648063 5.02814592 -0.49648063 5.02814592 -0.65625 7.1953125 C-0.78 8.4946875 -0.90375 9.7940625 -1.03125 11.1328125 C-1.69125 11.1328125 -2.35125 11.1328125 -3.03125 11.1328125 C-3.05813151 9.48706684 -3.07759123 7.84119837 -3.09375 6.1953125 C-3.10535156 5.27878906 -3.11695312 4.36226562 -3.12890625 3.41796875 C-3.00402422 0.49572926 -2.91184986 0.19039018 0 0 Z " fill="#5454B2" transform="translate(108.03125,148.8671875)"/>
<path d="M0 0 C0.99 0 1.98 0 3 0 C3 1.65 3 3.3 3 5 C4.32 5 5.64 5 7 5 C7 5.66 7 6.32 7 7 C5.68 7 4.36 7 3 7 C3.1135629 8.64666203 3.24117381 10.29236082 3.375 11.9375 C3.44460937 12.85402344 3.51421875 13.77054688 3.5859375 14.71484375 C3.72257813 15.46894531 3.85921875 16.22304687 4 17 C4.66 17.33 5.32 17.66 6 18 C6 18.66 6 19.32 6 20 C4.33388095 20.042721 2.66617115 20.04063832 1 20 C0 19 0 19 -0.09765625 16.27734375 C-0.08605469 15.17519531 -0.07445312 14.07304688 -0.0625 12.9375 C-0.05347656 11.83277344 -0.04445312 10.72804688 -0.03515625 9.58984375 C-0.02355469 8.73519531 -0.01195312 7.88054687 0 7 C-0.99 7 -1.98 7 -3 7 C-3 6.34 -3 5.68 -3 5 C-2.01 5 -1.02 5 0 5 C0 3.35 0 1.7 0 0 Z " fill="#060FE1" transform="translate(180,113)"/>
<path d="M0 0 C-0.3125 1.9375 -0.3125 1.9375 -1 4 C-1.99 4.33 -2.98 4.66 -4 5 C-4.33 8.63 -4.66 12.26 -5 16 C-6.32 16 -7.64 16 -9 16 C-9 11.05 -9 6.1 -9 1 C-4 0 -4 0 0 0 Z " fill="#1029F5" transform="translate(161,117)"/>
<path d="M0 0 C1.2065625 0.0309375 1.2065625 0.0309375 2.4375 0.0625 C2.81968767 1.71864657 3.15145102 3.38707024 3.4375 5.0625 C2.4375 6.0625 2.4375 6.0625 -0.125 6.125 C-1.3315625 6.0940625 -1.3315625 6.0940625 -2.5625 6.0625 C-2.94468767 4.40635343 -3.27645102 2.73792976 -3.5625 1.0625 C-2.5625 0.0625 -2.5625 0.0625 0 0 Z " fill="#0513F2" transform="translate(279.5625,64.9375)"/>
<path d="M0 0 C1.98 0 3.96 0 6 0 C6 1.98 6 3.96 6 6 C4.02 6 2.04 6 0 6 C0 4.02 0 2.04 0 0 Z " fill="#070EF7" transform="translate(76,65)"/>
<path d="M0 0 C1.98 0 3.96 0 6 0 C6 0.33 6 0.66 6 1 C4.02 1 2.04 1 0 1 C0 0.67 0 0.34 0 0 Z " fill="#FFFFFF" transform="translate(152,101)"/>
<path d="M0 0 C0.66 0 1.32 0 2 0 C1.67 0.66 1.34 1.32 1 2 C0.67 1.34 0.34 0.68 0 0 Z " fill="#FFFFFF" transform="translate(238,9)"/>
<path d="M0 0 C2 1 2 1 2 1 Z " fill="#FFFFFF" transform="translate(181,60)"/>
<path d="M0 0 C2 1 2 1 2 1 Z " fill="#FFFFFF" transform="translate(213,59)"/>
<path d="" fill="#FFFFFF" transform="translate(0,0)"/>
<path d="" fill="#FFFFFF" transform="translate(0,0)"/>
<path d="" fill="#FFFFFF" transform="translate(0,0)"/>
<path d="" fill="#FFFFFF" transform="translate(0,0)"/>
<path d="" fill="#FFFFFF" transform="translate(0,0)"/>
<path d="" fill="#FFFFFF" transform="translate(0,0)"/>
<path d="" fill="#FFFFFF" transform="translate(0,0)"/>
<path d="" fill="#FFFFFF" transform="translate(0,0)"/>
<path d="" fill="#FFFFFF" transform="translate(0,0)"/>
<path d="" fill="#FFFFFF" transform="translate(0,0)"/>
<path d="" fill="#FFFFFF" transform="translate(0,0)"/>
<path d="" fill="#FFFFFF" transform="translate(0,0)"/>
<path d="" fill="#FFFFFF" transform="translate(0,0)"/>
<path d="" fill="#FFFFFF" transform="translate(0,0)"/>
<path d="" fill="#FFFFFF" transform="translate(0,0)"/>
<path d="" fill="#FFFFFF" transform="translate(0,0)"/>
<path d="" fill="#FFFFFF" transform="translate(0,0)"/>
<path d="" fill="#FFFFFF" transform="translate(0,0)"/>
<path d="" fill="#FFFFFF" transform="translate(0,0)"/>
</svg>
